<?xml version="1.0" encoding="utf-8"?>
<!-- Generator: Adobe Illustrator 16.0.3, SVG Export Plug-In . SVG Version: 6.00 Build 0)  -->
<!DOCTYPE svg PUBLIC "-//W3C//DTD SVG 1.1//EN" "http://www.w3.org/Graphics/SVG/1.1/DTD/svg11.dtd">
<svg version="1.1" xmlns="http://www.w3.org/2000/svg" xmlns:xlink="http://www.w3.org/1999/xlink" x="0px" y="0px"
	 width="190.25px" height="163.75px" viewBox="0 0 190.25 163.75" enable-background="new 0 0 190.25 163.75" xml:space="preserve">
<g id="Capa_1">
	<g>
		<g id="XMLID_1_">
			<g>
				<path fill="#A3A3AF" d="M165.088,64.37c2.96,0,5.37,2.4,5.37,5.37c0,2.97-2.41,5.38-5.37,5.38c-2.97,0-5.38-2.41-5.38-5.38
					C159.708,66.77,162.119,64.37,165.088,64.37z"/>
				<path fill="#A3A3AF" d="M158.619,111.33c3.53,0,6.4,2.8,6.4,6.25s-2.87,6.25-6.4,6.25c-3.53,0-6.4-2.8-6.4-6.25
					S155.088,111.33,158.619,111.33z"/>
				<path fill="#A3A3AF" d="M159.119,75.6c0.28,0.85,1.59,6.86-13.81,14.62c2.3,2.32,10.59,11.37,7.36,17.59l-5.23,9.81
					c-0.14,0.75-1.16,3.95-8.31,3.95c-3.26,0-7.38-0.68-12.25-2.03c0.59,2.91,2.24,13.28-2.53,19.35l-0.11,0.14l-0.08,0.02
					l-13.34,3.02v-0.01c-0.45,0.23-1.53,0.25-1.54,0.25c-2.36,0-7.24-1.38-13.55-10.58c-1.63,2.43-7.82,10.94-14.53,10.94
					c-0.82,0-1.63-0.13-2.4-0.38l-11.49-3.73c-0.33-0.16-7.13-3.7-3.79-17.99c-1.58,0.46-5.44,1.44-9.45,1.44
					c-4.87,0-8.49-1.38-10.75-4.11l-5.29-9.07c-0.06-0.15-4.14-11.72,9.65-17.99c-3.39-1.5-12.06-5.94-13.5-12.69
					c-0.07-0.34-0.13-0.68-0.16-1.02c-0.81-8.5-0.01-11.1,0.02-11.2c0.01-0.06,2.1-8.9,18.18-8.41c0.11,0.01,0.22,0.01,0.33,0.01
					c-1.64-2.83-6.9-12.95-2.56-19.48l0.08-0.09l9.83-7.77c0,0,0.3-0.32,0.96-0.64c0.67-0.31,1.69-0.63,3.16-0.63
					c2.71,0,7.43,1.15,14.66,6.57c1.01-3.5,5.21-16.66,11.17-16.66h13.36c0.27,0.02,6.01,0.69,9.09,16.61
					c2.12-1.59,9.53-6.82,15.15-6.82c1.64,0,3.01,0.44,4.08,1.32c5.42,4.49,8.66,7.44,9.01,7.77c0.21,0.16,5.32,4.24-1.56,18.92
					c3.27,0.26,15.41,1.63,17.7,7.56C158.999,70.19,159.119,74.9,159.119,75.6z M144.889,90.15c15.82-7.88,14.21-13.85,13.98-14.51
					c0-0.54-0.07-5.28-2.43-11.36c-2.34-6.05-15.4-7.25-17.84-7.43c7.02-14.73,1.98-18.8,1.78-18.95c-0.03-0.03-3.32-3.06-9.01-7.76
					c-1.02-0.84-2.34-1.27-3.92-1.27c-5.83,0-13.61,5.7-15.32,7.01c-3.02-16.1-8.66-16.78-8.92-16.8h-13.36
					c-6.04,0-10.32,14.29-11.03,16.83c-7.33-5.56-12.09-6.74-14.8-6.74c-2.78,0-3.94,1.19-3.96,1.21l-9.81,7.75l-0.05,0.06
					c-4.48,6.73,1.44,17.36,2.8,19.61c-0.27-0.01-0.53-0.02-0.79-0.03c-15.87-0.48-17.92,8.17-17.93,8.23
					c-0.03,0.11-0.81,2.65-0.01,11.1c0.03,0.34,0.08,0.67,0.15,1c1.52,7.09,11.37,11.67,13.89,12.73
					c-14.14,6.09-10.13,17.72-10.07,17.88l5.28,9.03c2.21,2.67,5.76,4.02,10.55,4.02c4.35,0,8.47-1.15,9.79-1.55
					c-3.51,14.41,3.2,17.95,3.52,18.11l11.5,3.73c0.75,0.24,1.53,0.37,2.32,0.37c6.91,0,13.29-9.23,14.53-11.13
					c6.34,9.36,11.2,10.77,13.55,10.77c0.95,0,1.49-0.24,1.49-0.24l13.33-3.02l0.06-0.07c4.95-6.29,2.88-17.27,2.39-19.54
					c5.02,1.41,9.25,2.13,12.58,2.13c7.19,0,7.99-3.31,8.07-3.79l5.24-9.83C155.738,101.35,146.599,91.84,144.889,90.15z"/>
				<path fill="#A3A3AF" d="M152.588,106.71c-0.07,0.21-0.16,0.42-0.25,0.63C152.438,107.13,152.519,106.92,152.588,106.71z
					 M147.999,88.21c0.57-0.32,1.12-0.64,1.63-0.97C149.119,87.56,148.568,87.88,147.999,88.21z M149.849,87.11
					c9.15-5.69,9.11-9.9,8.85-11.1C158.889,77.1,158.949,81.4,149.849,87.11z M152.599,106.69c0.07-0.21,0.12-0.42,0.16-0.64
					C152.708,106.27,152.659,106.48,152.599,106.69z M152.769,106.01c1.14-5.51-5.09-12.62-7.48-15.09
					C147.579,93.35,153.838,100.54,152.769,106.01z M139.599,37.52c-0.1-0.09-0.21-0.18-0.33-0.29c-0.16-0.14-0.34-0.31-0.55-0.49
					c0.2,0.19,0.39,0.35,0.55,0.49C139.389,37.35,139.499,37.45,139.599,37.52z M138.579,57.1c0.06,0.01,0.13,0.02,0.2,0.02
					c2.43,0.2,11.94,1.22,15.96,5.11c0.16,0.16,0.32,0.32,0.46,0.49c0.15,0.17,0.28,0.34,0.4,0.52c0.13,0.18,0.24,0.36,0.34,0.55
					c0.06,0.1,0.11,0.2,0.15,0.31c-0.04-0.11-0.09-0.21-0.15-0.31c-0.1-0.19-0.21-0.37-0.34-0.55c-0.11-0.18-0.25-0.35-0.4-0.52
					c-0.13-0.17-0.29-0.34-0.46-0.49c-4-3.95-13.42-4.92-15.96-5.11C138.708,57.11,138.639,57.1,138.579,57.1z M140.249,38.11
					c0.01,0.01,0.03,0.03,0.05,0.05c0.64,0.63,3.92,4.58-0.71,15.84c4.82-11.65,1.28-15.35,0.71-15.84
					C140.278,38.13,140.258,38.12,140.249,38.11z M140.019,37.91c-0.06-0.06-0.13-0.13-0.22-0.2
					C139.878,37.79,139.958,37.86,140.019,37.91z M133.918,32.59c0.27,0.24,0.53,0.46,0.79,0.68
					C134.449,33.04,134.188,32.82,133.918,32.59z M123.039,29.98c0.22-0.08,0.43-0.15,0.65-0.21
					C123.468,29.83,123.249,29.9,123.039,29.98z M125.168,29.38c-0.15,0.03-0.3,0.06-0.45,0.1
					C124.869,29.44,125.019,29.41,125.168,29.38z M126.258,119.03l-0.04-0.2h-0.01C126.208,118.84,126.229,118.91,126.258,119.03z
					 M115.218,34.02c0.09-0.06,0.18-0.12,0.27-0.18C115.398,33.9,115.309,33.95,115.218,34.02z M115.849,33.61
					c0.17-0.11,0.34-0.22,0.52-0.33C116.188,33.39,116.019,33.5,115.849,33.61z M117.179,32.79c0.09-0.05,0.19-0.11,0.28-0.17
					C117.358,32.68,117.269,32.73,117.179,32.79z M118.628,31.96c-0.2,0.11-0.39,0.22-0.58,0.33
					C118.238,32.18,118.429,32.08,118.628,31.96z M118.639,31.96c0.2-0.1,0.4-0.21,0.6-0.32
					C119.039,31.74,118.838,31.85,118.639,31.96z M120.119,31.2c0.31-0.15,0.63-0.29,0.95-0.44
					C120.749,30.9,120.429,31.05,120.119,31.2z M111.079,32.21c-2.79-11.2-6.85-12.66-7.72-12.85
					C104.238,19.59,108.318,21.24,111.079,32.21z M94.749,132.27c-0.06,0.08-0.12,0.16-0.18,0.25c-1.84,2.51-5.64,7.11-9.94,8.91
					c-0.44,0.18-0.89,0.34-1.35,0.46c-0.2,0.05-0.39,0.1-0.59,0.13c0.2-0.03,0.4-0.07,0.59-0.13c0.46-0.11,0.91-0.27,1.35-0.46
					c4.34-1.77,8.13-6.39,9.94-8.91C94.639,132.43,94.699,132.35,94.749,132.27z M94.838,132.15c0.22-0.31,0.41-0.59,0.54-0.8
					C95.238,131.56,95.048,131.83,94.838,132.15z M79.079,35.89c0.02-0.05,0.04-0.11,0.05-0.18
					C79.119,35.77,79.099,35.83,79.079,35.89z M79.338,35.02c0.03-0.09,0.05-0.18,0.09-0.28C79.398,34.84,79.369,34.93,79.338,35.02
					z M81.849,142.14c0.16-0.01,0.32-0.03,0.48-0.06C82.168,142.11,82.008,142.13,81.849,142.14z M67.128,137.87
					c-1.21-0.86-4.95-4.3-3.8-13.49C62.119,133.71,65.898,137.05,67.128,137.87z M63.639,122.41c-0.12,0.63-0.22,1.24-0.29,1.82
					C63.429,123.65,63.519,123.04,63.639,122.41z M63.519,120.05c0.1-0.03,0.19-0.06,0.27-0.08l0.27-0.09l0.15-0.04v-0.01
					c0,0-0.06,0.02-0.15,0.05C63.938,119.92,63.758,119.97,63.519,120.05z M50.429,38.31h0.01l9.77-7.74L50.429,38.31z
					 M53.329,57.87l0.12,0.21h0.01C53.449,58.07,53.409,58,53.329,57.87z M60.258,30.54c0-0.01,0.02-0.02,0.03-0.03
					C60.278,30.51,60.269,30.52,60.258,30.54z M60.579,30.28c0.07-0.04,0.15-0.08,0.24-0.14C60.729,30.19,60.648,30.24,60.579,30.28
					z M60.929,30.08c0.06-0.03,0.13-0.06,0.2-0.09c0.46-0.21,1.11-0.43,1.96-0.52C62.099,29.57,61.389,29.84,60.929,30.08z
					 M47.179,90.05c0.15,0.07,0.29,0.14,0.42,0.2C47.468,90.19,47.329,90.12,47.179,90.05z M48.949,90.83
					c-0.02-0.01-0.06-0.03-0.12-0.05l0.1,0.05L48.548,91C48.679,90.95,48.809,90.89,48.949,90.83z M53.208,57.68
					c-1.23-2.1-6.73-12.12-3.23-18.66C46.378,45.65,52.008,55.68,53.208,57.68z M34.218,68.36c0.01-0.17,0.02-0.32,0.03-0.47
					C34.238,68.03,34.229,68.19,34.218,68.36z M34.548,65.97c0.02-0.05,0.04-0.13,0.08-0.24C34.588,65.83,34.559,65.91,34.548,65.97
					z M34.898,78.88c0.05,0.2,0.12,0.4,0.21,0.6c0.06,0.18,0.14,0.37,0.23,0.54c-0.09-0.18-0.16-0.36-0.23-0.54
					C35.028,79.28,34.949,79.08,34.898,78.88z M36.608,62.69c-0.82,0.84-1.33,1.65-1.64,2.26
					C35.289,64.34,35.798,63.54,36.608,62.69z M37.539,61.82c-0.34,0.28-0.64,0.57-0.91,0.85C36.898,62.4,37.199,62.11,37.539,61.82
					z M46.898,89.92c-2.73-1.33-7.54-4.03-10.3-7.78c-0.15-0.21-0.3-0.42-0.44-0.64c-0.14-0.21-0.28-0.43-0.4-0.65
					c-0.12-0.21-0.23-0.42-0.33-0.63c0.1,0.22,0.21,0.42,0.33,0.63c0.12,0.22,0.25,0.44,0.4,0.65c0.13,0.22,0.28,0.43,0.44,0.64
					C39.369,85.94,44.238,88.65,46.898,89.92z M158.869,75.64c0.23,0.66,1.84,6.63-13.98,14.51c1.71,1.69,10.85,11.2,7.55,17.55
					l-5.24,9.83c-0.08,0.48-0.88,3.79-8.07,3.79c-3.33,0-7.56-0.72-12.58-2.13c0.49,2.27,2.56,13.25-2.39,19.54l-0.06,0.07
					l-13.33,3.02c0,0-0.54,0.24-1.49,0.24c-2.35,0-7.21-1.41-13.55-10.77c-1.24,1.9-7.62,11.13-14.53,11.13
					c-0.79,0-1.57-0.13-2.32-0.37l-11.5-3.73c-0.32-0.16-7.03-3.7-3.52-18.11c-1.32,0.4-5.44,1.55-9.79,1.55
					c-4.79,0-8.34-1.35-10.55-4.02l-5.28-9.03c-0.06-0.16-4.07-11.79,10.07-17.88c-2.52-1.06-12.37-5.64-13.89-12.73
					c-0.07-0.33-0.12-0.66-0.15-1c-0.8-8.45-0.02-10.99,0.01-11.1c0.01-0.06,2.06-8.71,17.93-8.23c0.26,0.01,0.52,0.02,0.79,0.03
					c-1.36-2.25-7.28-12.88-2.8-19.61l0.05-0.06l9.81-7.75c0.02-0.02,1.18-1.21,3.96-1.21c2.71,0,7.47,1.18,14.8,6.74
					c0.71-2.54,4.99-16.83,11.03-16.83h13.36c0.26,0.02,5.9,0.7,8.92,16.8c1.71-1.31,9.49-7.01,15.32-7.01
					c1.58,0,2.9,0.43,3.92,1.27c5.69,4.7,8.98,7.73,9.01,7.76c0.2,0.15,5.24,4.22-1.78,18.95c2.44,0.18,15.5,1.38,17.84,7.43
					C158.798,70.36,158.869,75.1,158.869,75.64z M144.349,89.86c16.28-8.02,14.06-14.02,14.04-14.08l-0.02-0.1
					c0-0.05,0.06-4.89-2.39-11.22c-2.42-6.24-17.63-7.12-17.78-7.13l-0.38-0.02l0.17-0.34c7.05-14.59,2.12-18.65,2.07-18.69
					c-0.05-0.05-3.33-3.07-9.01-7.76c-0.93-0.76-2.14-1.15-3.6-1.15c-6.27,0-15.24,7.08-15.33,7.16l-0.33,0.26l-0.08-0.42
					c-2.91-16.04-8.47-16.79-8.52-16.79h-13.34c-6.1,0-10.6,16.65-10.65,16.81l-0.09,0.37l-0.3-0.23
					c-7.39-5.67-12.12-6.86-14.79-6.86c-2.55,0-3.62,1.07-3.63,1.08l-9.8,7.75c-4.69,7.14,3,19.32,3.08,19.45l0.27,0.41l-0.49-0.03
					c-0.43-0.03-0.85-0.04-1.26-0.06c-15.39-0.49-17.41,7.78-17.43,7.86c-0.01,0.05-0.78,2.62,0.01,10.93
					c0.03,0.31,0.08,0.63,0.14,0.94c1.65,7.7,14.02,12.55,14.14,12.6l0.58,0.22l-0.58,0.24c-14.34,5.84-10.52,16.96-10.35,17.44
					l5.23,8.95c2.08,2.52,5.5,3.81,10.14,3.81c5.16,0,10.01-1.65,10.06-1.67l0.44-0.15l-0.12,0.45
					c-3.66,14.39,3.05,17.93,3.12,17.97l11.47,3.71c0.69,0.23,1.42,0.35,2.16,0.35c7.26,0,14.24-11.11,14.31-11.22l0.2-0.33
					l0.22,0.32c6.31,9.46,11.07,10.87,13.35,10.87c0.85,0,1.32-0.21,1.33-0.21l13.21-2.99c5.28-6.84,2.18-19.34,2.15-19.47
					l-0.11-0.42l0.42,0.12c5.15,1.48,9.47,2.23,12.85,2.23c7.14,0,7.58-3.36,7.58-3.39l0.03-0.09l5.26-9.88
					c3.38-6.5-7.6-17.09-7.71-17.2l-0.26-0.25L144.349,89.86z"/>
				<path fill="#A3A3AF" d="M158.699,76.01c0.26,1.2,0.3,5.41-8.85,11.1C158.949,81.4,158.889,77.1,158.699,76.01z"/>
				<path fill="#A3A3AF" d="M49.628,90.82l-0.58-0.22c-0.12-0.05-12.49-4.9-14.14-12.6c-0.06-0.31-0.11-0.63-0.14-0.94
					c-0.79-8.31-0.02-10.88-0.01-10.93c0.02-0.08,2.04-8.35,17.43-7.86c0.41,0.02,0.83,0.03,1.26,0.06l0.49,0.03l-0.27-0.41
					c-0.08-0.13-7.77-12.31-3.08-19.45l9.8-7.75c0.01-0.01,1.08-1.08,3.63-1.08c2.67,0,7.4,1.19,14.79,6.86l0.3,0.23l0.09-0.37
					c0.05-0.16,4.55-16.81,10.65-16.81h13.34c0.05,0,5.61,0.75,8.52,16.79l0.08,0.42l0.33-0.26c0.09-0.08,9.06-7.16,15.33-7.16
					c1.46,0,2.67,0.39,3.6,1.15c5.68,4.69,8.96,7.71,9.01,7.76c0.05,0.04,4.98,4.1-2.07,18.69l-0.17,0.34l0.38,0.02
					c0.15,0.01,15.36,0.89,17.78,7.13c2.45,6.33,2.39,11.17,2.39,11.22l0.02,0.1c0.02,0.06,2.24,6.06-14.04,14.08l-0.32,0.15
					l0.26,0.25c0.11,0.11,11.09,10.7,7.71,17.2l-5.26,9.88l-0.03,0.09c0,0.03-0.44,3.39-7.58,3.39c-3.38,0-7.7-0.75-12.85-2.23
					l-0.42-0.12l0.11,0.42c0.03,0.13,3.13,12.63-2.15,19.47l-13.21,2.99c-0.01,0-0.48,0.21-1.33,0.21c-2.28,0-7.04-1.41-13.35-10.87
					l-0.22-0.32l-0.2,0.33c-0.07,0.11-7.05,11.22-14.31,11.22c-0.74,0-1.47-0.12-2.16-0.35l-11.47-3.71
					c-0.07-0.04-6.78-3.58-3.12-17.97l0.12-0.45l-0.44,0.15c-0.05,0.02-4.9,1.67-10.06,1.67c-4.64,0-8.06-1.29-10.14-3.81
					l-5.23-8.95c-0.17-0.48-3.99-11.6,10.35-17.44L49.628,90.82z M156.338,81.03c2.49-3.16,1.83-5.13,1.81-5.16l-0.03-0.14
					c0-0.1,0.05-4.9-2.38-11.18c-2.35-6.08-17.41-6.96-17.56-6.97l-0.75-0.04l0.33-0.68c4.16-8.6,4.1-13.5,3.39-16.05
					c-0.47-1.67-1.23-2.33-1.25-2.34c-0.63-0.57-3.85-3.49-9.01-7.75c-0.88-0.73-2.04-1.1-3.44-1.1c-6.12,0-15.09,7.03-15.18,7.1
					l-0.65,0.52l-0.15-0.82c-2.86-15.69-8.26-16.59-8.31-16.59h-13.31c-5.86,0-10.36,16.46-10.41,16.63l-0.19,0.72l-0.59-0.45
					c-7.33-5.63-12.01-6.81-14.64-6.81c-2.41,0-3.44,1-3.45,1.01l-9.79,7.74c-4.55,6.98,3.02,19.02,3.1,19.14l0.53,0.83l-0.98-0.06
					c-0.42-0.03-0.84-0.04-1.24-0.06c-15.08-0.48-17.16,7.59-17.18,7.67c-0.04,0.12-0.76,2.74,0.01,10.84
					c0.03,0.31,0.07,0.61,0.14,0.91c1.61,7.59,13.86,12.38,13.98,12.42l1.18,0.46l-0.65,0.26l-0.52,0.21
					c-14.14,5.75-10.39,16.66-10.22,17.12l5.21,8.92c1.26,1.52,3.04,2.58,5.31,3.16c1.37,0.35,2.91,0.52,4.62,0.52
					c5.11,0,9.93-1.64,9.98-1.65l0.87-0.31l-0.23,0.9c-3.58,14.1,2.93,17.65,3,17.68l11.42,3.7c0.68,0.23,1.38,0.34,2.09,0.34
					c6.67,0,13.16-9.66,14.01-10.96c0.06-0.08,0.09-0.13,0.09-0.14l0.41-0.66l0.43,0.64c6.25,9.36,10.91,10.76,13.14,10.76
					c0.78,0,1.21-0.18,1.23-0.19l13.16-2.99c5.15-6.77,2.09-19.05,2.06-19.18l-0.22-0.84l0.84,0.24c5.13,1.47,9.43,2.22,12.78,2.22
					c6.84,0,7.33-3.14,7.33-3.17l0.04-0.14l5.28-9.91c3.29-6.33-7.56-16.8-7.67-16.91l-0.51-0.49l0.64-0.32
					C150.979,86.31,154.508,83.34,156.338,81.03z"/>
				<path fill="#A3A3AF" d="M158.148,75.87c0.02,0.03,0.68,2-1.81,5.16l-2.37-0.69h-15.36l-2.79-12.08l13.8-1.7l0.09-0.01l0.13-0.14
					c0.21-0.25,0.5-0.87,0.2-1.6c-0.94-2.28-6.89-3.85-17.67-4.67c1.64-2.42,7.08-11,6.34-17.37l-0.13-1.13l2.57-0.83
					c0.71,2.55,0.77,7.45-3.39,16.05l-0.33,0.68l0.75,0.04c0.15,0.01,15.21,0.89,17.56,6.97c2.43,6.28,2.38,11.08,2.38,11.18
					L158.148,75.87z"/>
				<path fill="#A3A3AF" d="M153.968,80.34l2.37,0.69c-1.83,2.31-5.36,5.28-12.1,8.6l-0.64,0.32l0.51,0.49
					c0.11,0.11,10.96,10.58,7.67,16.91l-5.28,9.91l-0.04,0.14c0,0.03-0.49,3.17-7.33,3.17c-3.35,0-7.65-0.75-12.78-2.22l-0.84-0.24
					l-1.73,0.25c-0.14-1.03-0.33-2.08-0.58-3.14c2.02,0.88,7.13,2.86,12.24,2.86c2.41,0,4.57-0.44,6.4-1.3l0.89-0.41l-12.62-7
					l5.33-11.36l12.62,6.38l0.22-0.11c0.06-0.04,0.4-0.23,0.49-0.8c0.26-1.57-1.47-5.56-11.1-15.62c2.14-0.57,7.91-2.36,14.54-6.42
					L153.968,80.34z"/>
				<path fill="#A3A3AF" d="M156.088,64.1c-0.04-0.11-0.09-0.21-0.15-0.31C155.999,63.89,156.048,63.99,156.088,64.1z"/>
				<path fill="#A3A3AF" d="M155.938,63.79c-0.1-0.19-0.21-0.37-0.34-0.55C155.729,63.42,155.838,63.6,155.938,63.79z"/>
				<path fill="#A3A3AF" d="M155.599,63.24c-0.12-0.18-0.25-0.35-0.4-0.52C155.349,62.89,155.488,63.06,155.599,63.24z"/>
				<path fill="#A3A3AF" d="M155.199,62.72c-0.14-0.17-0.3-0.33-0.46-0.49C154.909,62.38,155.068,62.55,155.199,62.72z"/>
				<path fill="#A3A3AF" d="M153.968,80.34l-1.76,1.1c-6.63,4.06-12.4,5.85-14.54,6.42c9.63,10.06,11.36,14.05,11.1,15.62
					c-0.09,0.57-0.43,0.76-0.49,0.8l-0.22,0.11l-12.62-6.38l-5.33,11.36l12.62,7l-0.89,0.41c-1.83,0.86-3.99,1.3-6.4,1.3
					c-5.11,0-10.22-1.98-12.24-2.86c0.25,1.06,0.44,2.11,0.58,3.14c1.22,8.52-0.81,15.53-0.84,15.61l-0.44,1.47l-5.35-15
					l-13.28,3.72l5.63,15.02l-1.33-0.94c-8.7-6.16-11.2-12.05-11.91-14.96c-1.08,2.65-2.32,4.86-3.61,6.69
					c-4.59,6.55-9.72,8.31-9.78,8.33l-1.06,0.36l5.74-13.32l-12.33-5.35l-6.34,14.25l-0.4-1.26c-2.81-8.85-0.19-16.34,1.03-19.09
					c-11.76,3.58-16.55,4.12-18.36,4.12c-0.56,0-0.8-0.05-0.88-0.07l-0.08-0.02l-1-0.29l12.6-7.97l-7.01-12.15l-12.6,7.16
					l-0.26-0.18c-0.46-0.33-0.71-0.81-0.72-1.39c-0.04-2.58,5.05-7.39,8.99-10.72c1.31-1.11,2.49-2.05,3.31-2.69
					c-8.66-3.95-13.15-7.13-13.33-9.43c-0.07-0.89,0.51-1.3,0.58-1.35l0.17-0.11l11.66,2.09l2.84-12.64l-14.85-2.23l-0.04-0.39
					c-0.05-0.6,0.14-1.15,0.59-1.64c1.89-2.07,8.45-2.8,13.4-3.04c1.76-0.09,3.31-0.11,4.39-0.12c-6.84-8.79-6.45-17.93-6.45-18.03
					l0.06-1.14l11.2,11.46l8.21-8.09l-8.16-11.24l0.39-0.29c0.45-0.35,1.03-0.53,1.73-0.53c4.1,0,11.77,6.13,14.5,8.43
					c0.26-1.23,0.57-2.42,0.9-3.56c2.31-8.01,5.96-13.72,6-13.78l0.84-1.31l0.81,16.33h13.53l0.26-15.83l0.81,0.7
					c5.04,4.39,5.97,14.16,6.13,17c1.03-0.64,1.99-1.23,2.9-1.77c8.79-5.21,12.17-5.83,13.28-5.83c0.31,0,0.47,0.05,0.54,0.08
					l0.61,0.23L118.639,45l9.77,8.38l10.17-11.74l0.13,1.13c0.74,6.37-4.7,14.95-6.34,17.37c10.78,0.82,16.73,2.39,17.67,4.67
					c0.3,0.73,0.01,1.35-0.2,1.6l-0.13,0.14l-0.09,0.01l-13.8,1.7l2.79,12.08H153.968z M152.079,81.23l1.01-0.64h-14.68l-2.89-12.55
					l14.07-1.72l0.06-0.08c0.02-0.02,0.48-0.56,0.16-1.33c-0.9-2.19-7.09-3.76-17.89-4.55c1.35-1.94,7.31-10.94,6.54-17.56
					l-0.07-0.56l-9.96,11.49l-10.13-8.69l8.31-11.26l-0.31-0.12c-0.17-0.07-3.05-0.95-16.86,7.73c-0.1-2.3-0.84-12.71-6.07-17.25
					l-0.4-0.35l-0.26,15.54h-14.01l-0.78-15.79l-0.42,0.65c-0.05,0.08-4.91,7.7-6.95,17.67c-1.81-1.54-10.37-8.64-14.66-8.64
					c-0.64,0-1.18,0.16-1.58,0.47l-0.2,0.15l8.15,11.21l-8.55,8.43l-10.97-11.23l-0.03,0.57c0,0.09-0.41,9.41,6.72,18.26h-0.01
					c-3.59,0-15.51,0.22-18.12,3.08c-0.39,0.44-0.57,0.92-0.52,1.44l0.02,0.2l14.93,2.24l-2.96,13.14l-11.8-2.11l-0.08,0.05
					c-0.03,0.02-0.53,0.36-0.47,1.12c0.12,1.55,2.59,4.43,13.56,9.4c-2.07,1.6-12.58,9.93-12.53,13.46c0.01,0.5,0.22,0.9,0.61,1.18
					l0.13,0.1l12.68-7.21l7.25,12.58l-12.32,7.79l0.54,0.16c0.03,0.01,0.25,0.06,0.81,0.06c1.84,0,6.72-0.56,18.82-4.27
					c-1,2.08-4.25,9.98-1.25,19.42l0.2,0.62l6.17-13.87l12.79,5.55l-5.62,13.03l0.53-0.17c0.09-0.03,8.72-3.04,13.54-15.65
					c0.43,2.49,2.46,8.87,11.99,15.61l0.66,0.47l-5.44-14.5l13.76-3.87l5.18,14.5l0.22-0.73c0.03-0.09,2.65-9.12,0.14-19.12
					c1.63,0.75,7.1,3.05,12.6,3.05c2.38,0,4.5-0.43,6.3-1.27l0.44-0.21l-12.39-6.88l5.54-11.8l12.61,6.38l0.12,0.06l0.11-0.06
					c0.05-0.02,0.28-0.17,0.36-0.61c0.2-1.26-1-4.98-11.34-15.72C138.838,87.31,144.958,85.59,152.079,81.23z"/>
				<path fill="#A3A3AF" d="M144.528,84.88c0.3-0.13,0.62-0.27,0.94-0.42C145.148,84.61,144.838,84.75,144.528,84.88z
					 M147.838,83.32c0.38-0.19,0.76-0.39,1.15-0.61C148.599,82.92,148.218,83.12,147.838,83.32z M147.548,83.46
					c-0.32,0.16-0.64,0.32-0.95,0.47c-0.27,0.13-0.54,0.26-0.8,0.38c0.26-0.12,0.53-0.24,0.8-0.38
					C146.909,83.79,147.229,83.63,147.548,83.46z M151.318,81.39c-0.36,0.22-0.72,0.43-1.08,0.63
					C150.588,81.82,150.958,81.61,151.318,81.39z M149.579,65.01V65c0,0,0-0.01-0.01-0.01C149.568,65,149.579,65,149.579,65.01z
					 M138.519,117.31c-0.41,0.08-0.83,0.14-1.27,0.18C137.688,117.45,138.108,117.39,138.519,117.31z M138.249,44.81
					c-0.04,0.55-0.11,1.1-0.21,1.67C138.148,45.91,138.218,45.36,138.249,44.81z M138.559,117.3c0.48-0.09,0.94-0.2,1.38-0.33
					C139.488,117.1,139.028,117.21,138.559,117.3z M143.199,85.44c-0.28,0.12-0.56,0.23-0.83,0.33
					C142.639,85.67,142.909,85.56,143.199,85.44z M139.108,86.92c0.22-0.07,0.46-0.15,0.71-0.23
					C139.568,86.77,139.329,86.84,139.108,86.92z M140.199,86.56c0.3-0.1,0.61-0.21,0.94-0.33
					C140.809,86.35,140.488,86.46,140.199,86.56z M143.458,85.33c0.3-0.12,0.6-0.25,0.92-0.39
					C144.068,85.08,143.758,85.21,143.458,85.33z M132.809,58.55c1.46-2.31,3.76-6.36,4.85-10.4
					C136.559,52.16,134.269,56.21,132.809,58.55z M137.958,46.88c-0.04,0.19-0.08,0.37-0.12,0.56
					C137.889,47.25,137.929,47.06,137.958,46.88z M122.488,114.43l-0.02-0.09c-0.01-0.01-0.01-0.01-0.01-0.01
					C122.468,114.36,122.479,114.4,122.488,114.43z M123.048,131.09c-0.05,0.28-0.09,0.53-0.14,0.77
					C122.958,131.62,123.008,131.36,123.048,131.09z M123.159,130.46c-0.04,0.2-0.07,0.4-0.1,0.58
					C123.099,130.85,123.128,130.66,123.159,130.46z M123.249,118.14c0.12,0.84,0.22,1.66,0.28,2.47
					C123.468,119.81,123.378,118.98,123.249,118.14z M123.588,126.51c-0.04,0.6-0.09,1.17-0.14,1.7
					C123.508,127.67,123.548,127.1,123.588,126.51z M115.329,38.17c0.21-0.12,0.43-0.24,0.63-0.35
					C115.758,37.93,115.548,38.04,115.329,38.17z M117.438,37.02c0.22-0.11,0.43-0.22,0.64-0.33
					C117.869,36.79,117.659,36.9,117.438,37.02z M123.269,129.71c0.06-0.43,0.12-0.89,0.16-1.37
					C123.378,128.82,123.318,129.28,123.269,129.71z M122.179,34.81c0.26-0.1,0.51-0.19,0.75-0.28
					C122.688,34.61,122.438,34.7,122.179,34.81z M107.738,32.41c-0.13-0.47-0.28-0.95-0.45-1.42c-0.32-0.94-0.7-1.87-1.16-2.75
					c-0.11-0.22-0.22-0.43-0.35-0.64c-0.11-0.22-0.24-0.43-0.37-0.63c-0.12-0.21-0.26-0.41-0.4-0.6c-0.1-0.15-0.2-0.29-0.31-0.43
					c0.11,0.14,0.21,0.28,0.31,0.43c0.14,0.19,0.27,0.39,0.4,0.6c0.13,0.2,0.25,0.41,0.37,0.63c0.12,0.21,0.24,0.42,0.35,0.64
					c0.45,0.88,0.83,1.81,1.16,2.75C107.449,31.46,107.599,31.93,107.738,32.41z M108.079,33.67c-0.04-0.16-0.08-0.33-0.12-0.5
					C107.999,33.34,108.039,33.51,108.079,33.67z M108.548,35.86c-0.04-0.22-0.08-0.44-0.13-0.67
					C108.468,35.41,108.508,35.64,108.548,35.86z M108.958,38.61c-0.02-0.15-0.04-0.32-0.06-0.49
					C108.918,38.29,108.938,38.45,108.958,38.61z M109.148,40.64c-0.02-0.21-0.03-0.45-0.05-0.71
					C109.119,40.19,109.139,40.43,109.148,40.64z M109.199,41.57c0-0.1-0.01-0.23-0.02-0.38c0,0.08,0.01,0.15,0.01,0.21
					L109.199,41.57z M109.579,41.6c0.32-0.2,0.63-0.4,0.94-0.59C110.218,41.2,109.898,41.4,109.579,41.6z M83.559,32.75
					c-0.11,0.29-0.23,0.59-0.34,0.89C83.329,33.34,83.449,33.04,83.559,32.75z M85.958,27.46c-0.11,0.2-0.21,0.4-0.32,0.62
					C85.749,27.86,85.858,27.66,85.958,27.46z M95.999,122.57c0.03-0.08,0.06-0.16,0.09-0.24
					C96.059,122.41,96.028,122.49,95.999,122.57z M107.789,137.34c-0.35-0.26-0.69-0.51-1.02-0.77
					c-8.54-6.65-10.01-12.81-10.26-14.67l0.2-0.57c0,0.08,0.15,7.68,11.23,15.81l-5.06-13.48l14.74-4.13l4.8,13.45
					c0.57-2.44,2.04-10.22-0.2-18.59l-0.15-0.54l0.5,0.26c0.07,0.03,6.46,3.22,12.87,3.22c2.1,0,4-0.35,5.63-1.03l-11.94-6.61
					l0.1-0.22l5.86-12.48l12.9,6.53c0.02-0.05,0.05-0.13,0.05-0.24c0.09-1-0.87-4.52-11.51-15.53l-0.31-0.32l0.44-0.1
					c0.07-0.01,6.66-1.43,14.67-6.24h-13.32l-0.04-0.19l-3.07-13.28l14.42-1.77c0.07-0.13,0.18-0.4,0.02-0.76
					c-0.49-1.16-3.47-3.25-17.9-4.26l-0.45-0.03l0.27-0.37c0.07-0.1,7.13-9.92,6.75-16.99l-9.52,10.99l-0.19-0.16l-10.68-9.15
					l8.12-11.01c-1.09,0.04-5.14,0.82-16.4,7.93l-0.37,0.24l-0.01-0.45c0-0.12-0.3-11.84-5.51-16.94l-0.24,14.94h-14.99l-0.72-14.67
					c-1.24,2.12-4.92,8.87-6.54,17.22l-0.09,0.42l-0.32-0.28c-0.11-0.09-10.14-8.8-14.66-8.8c-0.43,0-0.78,0.08-1.07,0.24
					l8.09,11.15l-9.2,9.07l-10.5-10.74c0.04,2.21,0.66,10.19,6.94,17.73l0.35,0.42l-0.54-0.01c0,0-0.2,0-0.54,0
					c-2.52,0-15.22,0.14-17.75,2.92c-0.25,0.27-0.38,0.56-0.4,0.86l15.06,2.26l-3.18,14.14l-12.05-2.16
					c-0.08,0.09-0.21,0.29-0.18,0.62c0.11,1.17,2.03,3.92,13.64,9.13l0.39,0.17l-0.34,0.26c-0.13,0.1-12.71,9.73-12.66,13.31
					c0.01,0.28,0.1,0.51,0.29,0.69l12.81-7.29l7.75,13.42l-11.62,7.35c1.52-0.01,6.39-0.46,19.21-4.42l0.6-0.19l-0.31,0.55
					c-0.05,0.09-4.72,8.45-1.68,18.92l5.83-13.12l13.71,5.95l-5.36,12.42c2.02-0.92,9.07-4.83,13.05-16.12l0.05,0.57
					c0,0.01,0,0.01,0,0.02l0.05,0.58c-4.82,12.61-13.45,15.62-13.54,15.65l-0.53,0.17l5.62-13.03l-12.79-5.55l-6.17,13.87l-0.2-0.62
					c-3-9.44,0.25-17.34,1.25-19.42c-12.1,3.71-16.98,4.27-18.82,4.27c-0.56,0-0.78-0.05-0.81-0.06l-0.54-0.16l12.32-7.79
					l-7.25-12.58l-12.68,7.21l-0.13-0.1c-0.39-0.28-0.6-0.68-0.61-1.18c-0.05-3.53,10.46-11.86,12.53-13.46
					c-10.97-4.97-13.44-7.85-13.56-9.4c-0.06-0.76,0.44-1.1,0.47-1.12l0.08-0.05l11.8,2.11l2.96-13.14l-14.93-2.24l-0.02-0.2
					c-0.05-0.52,0.13-1,0.52-1.44c2.61-2.86,14.53-3.08,18.12-3.08h0.01c-7.13-8.85-6.72-18.17-6.72-18.26l0.03-0.57l10.97,11.23
					l8.55-8.43l-8.15-11.21l0.2-0.15c0.4-0.31,0.94-0.47,1.58-0.47c4.29,0,12.85,7.1,14.66,8.64c2.04-9.97,6.9-17.59,6.95-17.67
					l0.42-0.65l0.78,15.79h14.01l0.26-15.54l0.4,0.35c5.23,4.54,5.97,14.95,6.07,17.25c13.81-8.68,16.69-7.8,16.86-7.73l0.31,0.12
					l-8.31,11.26l10.13,8.69l9.96-11.49l0.07,0.56c0.77,6.62-5.19,15.62-6.54,17.56c10.8,0.79,16.99,2.36,17.89,4.55
					c0.32,0.77-0.14,1.31-0.16,1.33l-0.06,0.08l-14.07,1.72l2.89,12.55h14.68l-1.01,0.64c-7.12,4.36-13.24,6.08-14.89,6.49
					c10.34,10.74,11.54,14.46,11.34,15.72c-0.08,0.44-0.31,0.59-0.36,0.61l-0.11,0.06l-0.12-0.06l-12.61-6.38l-5.54,11.8l12.39,6.88
					l-0.44,0.21c-1.8,0.84-3.92,1.27-6.3,1.27c-5.5,0-10.97-2.3-12.6-3.05c2.51,10-0.11,19.03-0.14,19.12l-0.22,0.73l-5.18-14.5
					l-13.76,3.87l5.44,14.5l-0.66-0.47c-9.53-6.74-11.56-13.12-11.99-15.61l0.17-0.48l0.07,0.44c0.39,2.26,2.18,7.97,10.2,14.19
					C107.099,136.83,107.438,137.09,107.789,137.34z M76.668,39.08c-2.29-1.73-5.19-3.71-7.68-4.79c-0.19-0.09-0.38-0.17-0.57-0.23
					c0.19,0.07,0.38,0.15,0.57,0.23C71.468,35.38,74.369,37.36,76.668,39.08z M70.398,113.18c0.03-0.06,0.05-0.09,0.06-0.1
					c-0.01,0-0.01,0-0.02,0.01L70.398,113.18z M76.688,39.1c0.46,0.35,0.9,0.69,1.31,1.01C77.599,39.78,77.159,39.44,76.688,39.1z
					 M78.789,40.73c-0.19-0.16-0.4-0.32-0.62-0.49C78.389,40.42,78.588,40.58,78.789,40.73z M79.608,41.4
					c0.14,0.12,0.27,0.23,0.38,0.32C79.869,41.61,79.749,41.51,79.608,41.4z M80.958,41.13c-0.06,0.25-0.12,0.52-0.17,0.78
					l-0.08,0.42C80.789,41.92,80.869,41.52,80.958,41.13z M81.278,39.78c-0.07,0.27-0.14,0.55-0.2,0.84
					C81.139,40.33,81.208,40.05,81.278,39.78z M82.369,36.03c-0.15,0.45-0.3,0.92-0.44,1.4c-0.14,0.47-0.28,0.95-0.41,1.44
					c-0.07,0.25-0.14,0.5-0.2,0.76c0.06-0.26,0.13-0.51,0.2-0.76c0.13-0.49,0.27-0.97,0.41-1.44
					C82.068,36.95,82.218,36.49,82.369,36.03z M62.718,115.32c0.49-0.13,1.01-0.27,1.54-0.42
					C63.729,115.05,63.218,115.19,62.718,115.32z M66.749,33.56c0.13,0.02,0.26,0.05,0.4,0.09
					C67.008,33.61,66.878,33.58,66.749,33.56z M66.358,33.5c-0.05-0.01-0.1-0.01-0.14-0.01C66.258,33.49,66.309,33.49,66.358,33.5z
					 M67.869,33.86c-0.16-0.06-0.31-0.11-0.47-0.15C67.548,33.75,67.708,33.8,67.869,33.86z M53.559,89.17
					c-0.3-0.14-0.59-0.27-0.87-0.4C52.979,88.9,53.258,89.04,53.559,89.17z M52.199,117.46c0.13-0.01,0.27-0.02,0.42-0.04
					C52.468,117.43,52.329,117.45,52.199,117.46z M56.148,116.87c-1.13,0.22-2.05,0.36-2.79,0.46
					C54.108,117.24,55.028,117.09,56.148,116.87z M56.668,116.77c1.19-0.24,2.59-0.56,4.24-0.98
					C59.258,116.2,57.858,116.52,56.668,116.77z M59.949,61.33h0.01c-0.03-0.03-0.05-0.07-0.08-0.1L59.949,61.33z"/>
				<path fill="#A3A3AF" d="M152.769,106.01c1.07-5.47-5.19-12.66-7.48-15.09C147.679,93.39,153.909,100.5,152.769,106.01z"/>
				<path fill="#A3A3AF" d="M152.599,106.69c0.06-0.21,0.11-0.42,0.16-0.64C152.718,106.27,152.668,106.48,152.599,106.69z"/>
				<path fill="#A3A3AF" d="M152.338,107.34c0.09-0.21,0.18-0.42,0.25-0.63C152.519,106.92,152.438,107.13,152.338,107.34z"/>
				<path fill="#A3A3AF" d="M96.458,121.34c-0.06,0.16-0.12,0.32-0.18,0.48l-0.05-0.57c-3.98,11.29-11.03,15.2-13.05,16.12
					l5.36-12.42L74.829,119l-5.83,13.12c-3.04-10.47,1.63-18.83,1.68-18.92l0.31-0.55l-0.6,0.19c-12.82,3.96-17.69,4.41-19.21,4.42
					l11.62-7.35l-7.75-13.42l-12.81,7.29c-0.19-0.18-0.28-0.41-0.29-0.69c-0.05-3.58,12.53-13.21,12.66-13.31l0.34-0.26l-0.39-0.17
					c-11.61-5.21-13.53-7.96-13.64-9.13c-0.03-0.33,0.1-0.53,0.18-0.62l12.05,2.16l3.18-14.14l-15.06-2.26
					c0.02-0.3,0.15-0.59,0.4-0.86c2.53-2.78,15.23-2.92,17.75-2.92c0.34,0,0.54,0,0.54,0l0.54,0.01l-0.35-0.42
					c-6.28-7.54-6.9-15.52-6.94-17.73l10.5,10.74l9.2-9.07l-8.09-11.15c0.29-0.16,0.64-0.24,1.07-0.24c4.52,0,14.55,8.71,14.66,8.8
					l0.32,0.28l0.09-0.42c1.62-8.35,5.3-15.1,6.54-17.22l0.72,14.67h14.99l0.24-14.94c5.21,5.1,5.51,16.82,5.51,16.94l0.01,0.45
					l0.37-0.24c11.26-7.11,15.31-7.89,16.4-7.93l-8.12,11.01l10.68,9.15l0.19,0.16l9.52-10.99c0.38,7.07-6.68,16.89-6.75,16.99
					l-0.27,0.37l0.45,0.03c14.43,1.01,17.41,3.1,17.9,4.26c0.16,0.36,0.05,0.63-0.02,0.76l-14.42,1.77l3.07,13.28l0.04,0.19h13.32
					c-8.01,4.81-14.6,6.23-14.67,6.24l-0.44,0.1l0.31,0.32c10.64,11.01,11.6,14.53,11.51,15.53c0,0.11-0.03,0.19-0.05,0.24
					l-12.9-6.53l-5.86,12.48l-0.1,0.22l11.94,6.61c-1.63,0.68-3.53,1.03-5.63,1.03c-6.41,0-12.8-3.19-12.87-3.22l-0.5-0.26
					l0.15,0.54c2.24,8.37,0.77,16.15,0.2,18.59l-4.8-13.45l-14.74,4.13l5.06,13.48c-11.08-8.13-11.23-15.73-11.23-15.81l-0.2,0.57
					C96.468,121.58,96.458,121.39,96.458,121.34z M150.418,81.34h-12.61l-3.21-13.94l14.55-1.79c0.03-0.1,0.04-0.24-0.04-0.42
					c-0.38-0.89-2.86-3.08-17.69-4.11l-0.89-0.06l0.53-0.73c0.06-0.1,6.65-9.28,6.72-16.19l-9.27,10.68l-0.38-0.32l-10.85-9.3
					l7.92-10.74c-1.59,0.27-5.89,1.62-15.72,7.83l-0.75,0.48l-0.02-0.89c0-0.11-0.32-11.14-5.02-16.34l-0.24,14.58h-15.47
					l-0.69-14.05c-1.44,2.58-4.62,8.87-6.09,16.4l-0.17,0.85l-0.65-0.57c-2.78-2.43-10.8-8.74-14.49-8.74
					c-0.26,0-0.49,0.03-0.69,0.1l8.04,11.06l-9.54,9.41l-10.22-10.46c0.16,2.85,1.15,10.07,6.86,16.93l0.7,0.83l-1.62-0.01
					c-6.91,0-15.66,0.74-17.56,2.84c-0.15,0.16-0.25,0.32-0.3,0.48l15.08,2.26l-3.3,14.64l-12.13-2.18
					c-0.03,0.08-0.06,0.18-0.04,0.32c0.08,0.9,1.57,3.58,13.5,8.93l0.76,0.35l-0.67,0.51c-3.51,2.67-12.6,10.23-12.56,13.1
					c0.01,0.15,0.03,0.27,0.1,0.38l12.84-7.31l7.99,13.85l-11.01,6.96c2.21-0.17,7.34-1.01,18.19-4.36l1.21-0.37l-0.63,1.1
					c-0.04,0.08-4.46,8-1.83,18.05l5.64-12.71l14.17,6.15l-5.19,12.03c2.56-1.32,8.7-5.43,12.31-15.69l0.48,0.01l0.49,0.16
					c0,0.07,0.2,7.28,10.44,15.1l-4.85-12.93l15.22-4.28l4.59,12.85c0.61-2.97,1.64-10.09-0.38-17.61l-0.29-1.08l0.99,0.5
					c0.27,0.13,6.46,3.2,12.76,3.2c1.86,0,3.55-0.28,5.04-0.82l-11.67-6.47l6.17-13.14l12.82,6.49c-0.02-0.95-1.07-4.47-11.45-15.21
					l-0.63-0.65l0.89-0.19C136.668,87.08,142.758,85.78,150.418,81.34z"/>
				<path fill="#A3A3AF" d="M150.238,82.02c0.36-0.2,0.72-0.41,1.08-0.63C150.958,81.61,150.588,81.82,150.238,82.02z"/>
				<path fill="#A3A3AF" d="M149.579,65v0.01c0-0.01-0.01-0.01-0.01-0.02C149.579,64.99,149.579,65,149.579,65z"/>
				<path fill="#A3A3AF" d="M147.838,83.32c0.38-0.2,0.76-0.4,1.15-0.61C148.599,82.93,148.218,83.13,147.838,83.32z"/>
				<path fill="#A3A3AF" d="M149.628,87.24c-0.51,0.33-1.06,0.65-1.63,0.97C148.568,87.88,149.119,87.56,149.628,87.24z"/>
				<path fill="#A3A3AF" d="M138.778,57.12c2.54,0.19,11.96,1.16,15.96,5.11C150.718,58.34,141.208,57.32,138.778,57.12z"/>
				<path fill="#A3A3AF" d="M146.599,83.93c0.31-0.15,0.63-0.31,0.95-0.47C147.229,83.63,146.909,83.79,146.599,83.93z"/>
				<path fill="#A3A3AF" d="M145.798,84.31c0.26-0.12,0.53-0.25,0.8-0.38C146.329,84.07,146.059,84.19,145.798,84.31z"/>
				<path fill="#A3A3AF" d="M141.628,21.64c3.55,0,6.42,2.74,6.42,6.13c0,3.38-2.87,6.12-6.42,6.12c-3.54,0-6.42-2.74-6.42-6.12
					C135.208,24.38,138.088,21.64,141.628,21.64z"/>
				<path fill="#A3A3AF" d="M144.528,84.88c0.31-0.13,0.62-0.27,0.94-0.42C145.148,84.61,144.829,84.75,144.528,84.88z"/>
				<path fill="#A3A3AF" d="M143.458,85.33c0.3-0.12,0.61-0.25,0.92-0.39C144.059,85.08,143.758,85.21,143.458,85.33z"/>
				<path fill="#A3A3AF" d="M142.369,85.77c0.27-0.1,0.55-0.21,0.83-0.33C142.909,85.56,142.639,85.67,142.369,85.77z"/>
				<path fill="#A3A3AF" d="M141.148,40.81l-2.57,0.83l-10.17,11.74l-9.77-8.38l8.36-11.34l-0.61-0.23
					c-0.07-0.03-0.23-0.08-0.54-0.08c-1.11,0-4.49,0.62-13.28,5.83l-0.95-1.94l0.65-0.52c0.09-0.07,9.06-7.1,15.18-7.1
					c1.4,0,2.56,0.37,3.44,1.1c5.16,4.26,8.38,7.18,9.01,7.75C139.918,38.48,140.679,39.14,141.148,40.81z"/>
				<path fill="#A3A3AF" d="M140.199,86.56c0.29-0.1,0.61-0.21,0.94-0.33C140.809,86.35,140.499,86.46,140.199,86.56z"/>
				<path fill="#A3A3AF" d="M139.588,54c4.63-11.26,1.35-15.21,0.71-15.84C140.869,38.65,144.409,42.35,139.588,54z"/>
				<path fill="#A3A3AF" d="M140.298,38.16c-0.02-0.02-0.04-0.04-0.05-0.05C140.258,38.12,140.278,38.13,140.298,38.16z"/>
				<path fill="#A3A3AF" d="M140.019,37.91c-0.06-0.05-0.14-0.12-0.22-0.2C139.889,37.78,139.958,37.85,140.019,37.91z"/>
				<path fill="#A3A3AF" d="M139.269,37.23c0.12,0.11,0.23,0.2,0.33,0.29C139.499,37.45,139.389,37.35,139.269,37.23z"/>
				<path fill="#A3A3AF" d="M139.818,86.69c-0.25,0.08-0.49,0.16-0.71,0.23C139.329,86.84,139.568,86.77,139.818,86.69z"/>
				<path fill="#A3A3AF" d="M138.559,117.3c0.47-0.09,0.93-0.2,1.38-0.33C139.499,117.1,139.039,117.21,138.559,117.3z"/>
				<path fill="#A3A3AF" d="M139.269,37.23c-0.16-0.14-0.35-0.3-0.55-0.49C138.929,36.92,139.108,37.09,139.269,37.23z"/>
				<path fill="#A3A3AF" d="M138.579,57.1c0.06,0,0.13,0.01,0.2,0.02C138.708,57.12,138.639,57.11,138.579,57.1z"/>
				<path fill="#A3A3AF" d="M138.249,44.81c-0.03,0.55-0.1,1.1-0.21,1.67C138.139,45.91,138.208,45.36,138.249,44.81z"/>
				<path fill="#A3A3AF" d="M137.838,47.44c0.04-0.19,0.08-0.37,0.12-0.56C137.929,47.06,137.889,47.25,137.838,47.44z"/>
				<path fill="#A3A3AF" d="M137.249,117.49c0.44-0.04,0.86-0.1,1.27-0.18C138.108,117.39,137.688,117.45,137.249,117.49z"/>
				<path fill="#A3A3AF" d="M134.708,33.27c-0.26-0.22-0.52-0.44-0.79-0.68C134.188,32.82,134.449,33.04,134.708,33.27z"/>
				<path fill="#A3A3AF" d="M132.809,58.55c1.46-2.34,3.75-6.39,4.85-10.4C136.568,52.19,134.269,56.24,132.809,58.55z"/>
				<path fill="#A3A3AF" d="M126.218,118.83l0.04,0.2c-0.03-0.12-0.05-0.19-0.05-0.2H126.218z"/>
				<path fill="#A3A3AF" d="M125.729,118.95c0.03,0.13,3.09,12.41-2.06,19.18l-13.16,2.99c-0.02,0.01-0.45,0.19-1.23,0.19
					c-2.23,0-6.89-1.4-13.14-10.76l-0.43-0.64l-0.41,0.66c0,0.01-0.03,0.06-0.09,0.14l-2.56-0.74c1.29-1.83,2.53-4.04,3.61-6.69
					c0.71,2.91,3.21,8.8,11.91,14.96l1.33,0.94l-5.63-15.02l13.28-3.72l5.35,15l0.44-1.47c0.03-0.08,2.06-7.09,0.84-15.61l1.73-0.25
					L125.729,118.95z"/>
				<path fill="#A3A3AF" d="M125.168,29.38c-0.15,0.03-0.3,0.06-0.45,0.1C124.869,29.44,125.019,29.41,125.168,29.38z"/>
				<path fill="#A3A3AF" d="M120.208,141.45c3.31,0,6,2.69,6,6c0,3.32-2.69,6-6,6s-6-2.68-6-6
					C114.208,144.14,116.898,141.45,120.208,141.45z"/>
				<path fill="#A3A3AF" d="M123.688,29.77c-0.22,0.06-0.43,0.13-0.65,0.21C123.249,29.9,123.468,29.83,123.688,29.77z"/>
				<path fill="#A3A3AF" d="M123.588,126.51c-0.04,0.59-0.08,1.16-0.14,1.7C123.499,127.68,123.548,127.11,123.588,126.51z"/>
				<path fill="#A3A3AF" d="M123.249,118.14c0.13,0.84,0.22,1.67,0.28,2.47C123.468,119.8,123.369,118.98,123.249,118.14z"/>
				<path fill="#A3A3AF" d="M123.429,128.34c-0.04,0.48-0.1,0.94-0.16,1.37C123.318,129.28,123.378,128.82,123.429,128.34z"/>
				<path fill="#A3A3AF" d="M123.159,130.46c-0.03,0.2-0.06,0.39-0.1,0.58C123.088,130.86,123.119,130.66,123.159,130.46z"/>
				<path fill="#A3A3AF" d="M123.048,131.09c-0.04,0.27-0.09,0.53-0.14,0.77C122.958,131.62,122.999,131.37,123.048,131.09z"/>
				<path fill="#A3A3AF" d="M122.179,34.81c0.26-0.11,0.51-0.2,0.75-0.28C122.688,34.62,122.438,34.71,122.179,34.81z"/>
				<path fill="#A3A3AF" d="M122.468,114.34l0.02,0.09c-0.01-0.03-0.02-0.07-0.03-0.1C122.458,114.33,122.458,114.33,122.468,114.34
					z"/>
				<path fill="#A3A3AF" d="M120.119,31.2c0.31-0.15,0.63-0.3,0.95-0.44C120.749,30.91,120.429,31.05,120.119,31.2z"/>
				<path fill="#A3A3AF" d="M119.238,31.64c-0.2,0.11-0.4,0.22-0.6,0.32C118.838,31.85,119.039,31.74,119.238,31.64z"/>
				<path fill="#A3A3AF" d="M118.628,31.96c-0.2,0.12-0.39,0.22-0.58,0.33C118.238,32.18,118.429,32.07,118.628,31.96z"/>
				<path fill="#A3A3AF" d="M118.079,36.69c-0.21,0.11-0.42,0.22-0.64,0.33C117.659,36.9,117.869,36.79,118.079,36.69z"/>
				<path fill="#A3A3AF" d="M117.458,32.62c-0.09,0.06-0.19,0.12-0.28,0.17C117.269,32.73,117.358,32.68,117.458,32.62z"/>
				<path fill="#A3A3AF" d="M116.369,33.28c-0.18,0.11-0.35,0.22-0.52,0.33C116.019,33.5,116.188,33.39,116.369,33.28z"/>
				<path fill="#A3A3AF" d="M115.958,37.82c-0.2,0.11-0.42,0.23-0.63,0.35C115.548,38.04,115.758,37.93,115.958,37.82z"/>
				<path fill="#A3A3AF" d="M115.488,33.84c-0.09,0.06-0.18,0.12-0.27,0.18C115.309,33.95,115.398,33.9,115.488,33.84z"/>
				<path fill="#A3A3AF" d="M111.619,37.24l0.95,1.94c-0.91,0.54-1.87,1.13-2.9,1.77c-0.16-2.84-1.09-12.61-6.13-17l-0.81-0.7
					l-0.26,15.83h-13.53l-0.81-16.33l-0.84,1.31c-0.04,0.06-3.69,5.77-6,13.78l-2.04-0.66l0.19-0.72
					c0.05-0.17,4.55-16.63,10.41-16.63h13.31c0.05,0,5.45,0.9,8.31,16.59L111.619,37.24z"/>
				<path fill="#A3A3AF" d="M110.519,41.01c-0.31,0.19-0.62,0.39-0.94,0.59C109.898,41.4,110.218,41.2,110.519,41.01z"/>
				<path fill="#A3A3AF" d="M109.199,41.57l-0.01-0.17c0-0.06-0.01-0.13-0.01-0.21C109.188,41.34,109.199,41.47,109.199,41.57z"/>
				<path fill="#A3A3AF" d="M109.099,39.93c0.02,0.26,0.03,0.5,0.05,0.71C109.139,40.43,109.119,40.19,109.099,39.93z"/>
				<path fill="#A3A3AF" d="M108.958,38.61c-0.02-0.16-0.04-0.32-0.06-0.49C108.918,38.29,108.938,38.46,108.958,38.61z"/>
				<path fill="#A3A3AF" d="M108.548,35.86c-0.04-0.22-0.08-0.45-0.13-0.67C108.468,35.42,108.508,35.64,108.548,35.86z"/>
				<path fill="#A3A3AF" d="M108.079,33.67c-0.04-0.16-0.08-0.33-0.12-0.5C107.999,33.34,108.039,33.51,108.079,33.67z"/>
				<path fill="#A3A3AF" d="M106.769,136.57c0.33,0.26,0.67,0.51,1.02,0.77C107.438,137.09,107.099,136.83,106.769,136.57z"/>
				<path fill="#A3A3AF" d="M107.738,32.41c-0.14-0.48-0.29-0.95-0.45-1.42C107.458,31.46,107.608,31.94,107.738,32.41z"/>
				<path fill="#A3A3AF" d="M103.358,19.36c0.87,0.19,4.93,1.65,7.72,12.85C108.318,21.24,104.238,19.59,103.358,19.36z"/>
				<path fill="#A3A3AF" d="M107.289,30.99c-0.33-0.94-0.71-1.87-1.16-2.75C106.588,29.12,106.968,30.05,107.289,30.99z"/>
				<path fill="#A3A3AF" d="M106.128,28.24c-0.11-0.22-0.23-0.43-0.35-0.64C105.909,27.81,106.019,28.02,106.128,28.24z"/>
				<path fill="#A3A3AF" d="M105.778,27.6c-0.12-0.22-0.24-0.43-0.37-0.63C105.539,27.17,105.668,27.38,105.778,27.6z"/>
				<path fill="#A3A3AF" d="M105.409,26.97c-0.13-0.21-0.26-0.41-0.4-0.6C105.148,26.56,105.289,26.76,105.409,26.97z"/>
				<path fill="#A3A3AF" d="M105.008,26.37c-0.1-0.15-0.2-0.29-0.31-0.43C104.809,26.08,104.909,26.22,105.008,26.37z"/>
				<path fill="#A3A3AF" d="M95.718,5.83c3.25,0,5.88,2.57,5.88,5.75s-2.63,5.75-5.88,5.75c-3.24,0-5.87-2.57-5.87-5.75
					S92.479,5.83,95.718,5.83z"/>
				<path fill="#A3A3AF" d="M106.769,136.57c-8.02-6.22-9.81-11.93-10.2-14.19l-0.07-0.44l0.01-0.04
					C96.758,123.76,98.229,129.92,106.769,136.57z"/>
				<path fill="#A3A3AF" d="M96.508,121.9l-0.01,0.04l-0.08-0.46l-0.14,0.36c0-0.01,0-0.01,0-0.02c0.06-0.16,0.12-0.32,0.18-0.48
					C96.458,121.39,96.468,121.58,96.508,121.9z"/>
				<polygon fill="#A3A3AF" points="96.418,121.48 96.499,121.94 96.329,122.42 96.278,121.84 				"/>
				<path fill="#A3A3AF" d="M95.999,122.57c0.03-0.08,0.06-0.16,0.09-0.24C96.059,122.41,96.028,122.49,95.999,122.57z"/>
				<path fill="#A3A3AF" d="M92.648,129.97l2.56,0.74c-0.85,1.3-7.34,10.96-14.01,10.96c-0.71,0-1.41-0.11-2.09-0.34l-11.42-3.7
					c-0.07-0.03-6.58-3.58-3-17.68l0.23-0.9l-0.87,0.31c-0.05,0.01-4.87,1.65-9.98,1.65c-1.71,0-3.25-0.17-4.62-0.52l0.74-2.57
					l0.08,0.02c0.08,0.02,0.32,0.07,0.88,0.07c1.81,0,6.6-0.54,18.36-4.12c-1.22,2.75-3.84,10.24-1.03,19.09l0.4,1.26l6.34-14.25
					l12.33,5.35l-5.74,13.32l1.06-0.36C82.929,138.28,88.059,136.52,92.648,129.97z"/>
				<path fill="#A3A3AF" d="M95.378,131.35c-0.13,0.21-0.32,0.49-0.54,0.8C95.048,131.83,95.238,131.56,95.378,131.35z"/>
				<path fill="#A3A3AF" d="M94.568,132.52c0.06-0.09,0.12-0.17,0.18-0.25C94.699,132.35,94.639,132.43,94.568,132.52z"/>
				<path fill="#A3A3AF" d="M84.628,141.43c4.3-1.8,8.1-6.4,9.94-8.91C92.758,135.04,88.968,139.66,84.628,141.43z"/>
				<path fill="#A3A3AF" d="M85.639,28.08c0.11-0.22,0.21-0.42,0.32-0.62C85.858,27.66,85.749,27.86,85.639,28.08z"/>
				<path fill="#A3A3AF" d="M83.278,141.89c0.46-0.12,0.91-0.28,1.35-0.46C84.188,141.62,83.738,141.78,83.278,141.89z"/>
				<path fill="#A3A3AF" d="M83.559,32.75c-0.11,0.29-0.23,0.59-0.34,0.89C83.329,33.34,83.449,33.04,83.559,32.75z"/>
				<path fill="#A3A3AF" d="M82.688,142.02c0.2-0.03,0.39-0.08,0.59-0.13C83.088,141.95,82.889,141.99,82.688,142.02z"/>
				<path fill="#A3A3AF" d="M82.369,36.03c-0.15,0.46-0.3,0.92-0.44,1.4C82.068,36.95,82.218,36.48,82.369,36.03z"/>
				<path fill="#A3A3AF" d="M81.849,142.14c0.16-0.01,0.32-0.03,0.48-0.06C82.168,142.11,82.008,142.13,81.849,142.14z"/>
				<path fill="#A3A3AF" d="M81.929,37.43c-0.14,0.47-0.28,0.95-0.41,1.44C81.648,38.38,81.789,37.9,81.929,37.43z"/>
				<path fill="#A3A3AF" d="M81.519,38.87c-0.07,0.25-0.14,0.5-0.2,0.76C81.378,39.37,81.449,39.12,81.519,38.87z"/>
				<path fill="#A3A3AF" d="M79.249,37.18l2.04,0.66c-0.33,1.14-0.64,2.33-0.9,3.56c-2.73-2.3-10.4-8.43-14.5-8.43
					c-0.7,0-1.28,0.18-1.73,0.53l-0.39,0.29l8.16,11.24l-8.21,8.09l-11.2-11.46l-0.06,1.14c0,0.1-0.39,9.24,6.45,18.03
					c-1.08,0.01-2.63,0.03-4.39,0.12l-0.11-2.31l-0.53-0.83c-0.08-0.12-7.65-12.16-3.1-19.14l9.79-7.74
					c0.01-0.01,1.04-1.01,3.45-1.01c2.63,0,7.31,1.18,14.64,6.81L79.249,37.18z"/>
				<path fill="#A3A3AF" d="M81.278,39.78c-0.07,0.27-0.14,0.55-0.2,0.84C81.139,40.33,81.208,40.05,81.278,39.78z"/>
				<path fill="#A3A3AF" d="M80.789,41.91c0.05-0.26,0.11-0.53,0.17-0.78c-0.09,0.39-0.17,0.79-0.25,1.2L80.789,41.91z"/>
				<path fill="#A3A3AF" d="M79.608,41.4c0.14,0.11,0.26,0.21,0.38,0.32C79.878,41.63,79.749,41.52,79.608,41.4z"/>
				<path fill="#A3A3AF" d="M79.429,34.74c-0.04,0.1-0.06,0.19-0.09,0.28C79.369,34.93,79.398,34.84,79.429,34.74z"/>
				<path fill="#A3A3AF" d="M79.079,35.89c0.02-0.06,0.04-0.12,0.05-0.18C79.119,35.78,79.099,35.84,79.079,35.89z"/>
				<path fill="#A3A3AF" d="M78.789,40.73c-0.2-0.15-0.4-0.31-0.62-0.49C78.389,40.41,78.599,40.57,78.789,40.73z"/>
				<path fill="#A3A3AF" d="M72.588,141.58c3.52,0,6.37,2.8,6.37,6.25s-2.85,6.25-6.37,6.25c-3.53,0-6.38-2.8-6.38-6.25
					S69.059,141.58,72.588,141.58z"/>
				<path fill="#A3A3AF" d="M77.999,40.11c-0.41-0.32-0.85-0.66-1.31-1.01C77.159,39.44,77.599,39.78,77.999,40.11z"/>
				<path fill="#A3A3AF" d="M76.668,39.08c-2.3-1.72-5.2-3.7-7.68-4.79C71.479,35.37,74.378,37.35,76.668,39.08z"/>
				<path fill="#A3A3AF" d="M70.438,113.09c0.01-0.01,0.01-0.01,0.02-0.01c-0.01,0.01-0.03,0.04-0.06,0.1L70.438,113.09z"/>
				<path fill="#A3A3AF" d="M68.988,34.29c-0.19-0.08-0.38-0.16-0.57-0.23C68.608,34.12,68.798,34.2,68.988,34.29z"/>
				<path fill="#A3A3AF" d="M67.869,33.86c-0.16-0.06-0.32-0.11-0.47-0.15C67.559,33.75,67.708,33.8,67.869,33.86z"/>
				<path fill="#A3A3AF" d="M67.148,33.65c-0.14-0.04-0.27-0.07-0.4-0.09C66.878,33.58,67.008,33.61,67.148,33.65z"/>
				<path fill="#A3A3AF" d="M66.358,33.5c-0.05-0.01-0.1-0.01-0.14-0.01C66.258,33.49,66.309,33.49,66.358,33.5z"/>
				<path fill="#A3A3AF" d="M64.208,119.83v0.01l-0.15,0.04C64.148,119.85,64.208,119.83,64.208,119.83z"/>
				<path fill="#A3A3AF" d="M64.059,119.88l-0.27,0.09c-0.08,0.02-0.17,0.05-0.27,0.08C63.758,119.97,63.938,119.92,64.059,119.88z"
					/>
				<path fill="#A3A3AF" d="M64.258,114.9c-0.53,0.15-1.05,0.29-1.54,0.42C63.218,115.19,63.729,115.05,64.258,114.9z"/>
				<path fill="#A3A3AF" d="M63.639,122.41c-0.12,0.63-0.21,1.24-0.29,1.82C63.418,123.65,63.519,123.04,63.639,122.41z"/>
				<path fill="#A3A3AF" d="M63.329,124.38c-1.15,9.19,2.59,12.63,3.8,13.49C65.898,137.05,62.119,133.71,63.329,124.38z"/>
				<path fill="#A3A3AF" d="M54.778,97.51l7.01,12.15l-12.6,7.97l1,0.29l-0.74,2.57c-2.27-0.58-4.05-1.64-5.31-3.16l-5.21-8.92
					c-0.17-0.46-3.92-11.37,10.22-17.12l0.52-0.21l0.52,1.3c-3.94,3.33-9.03,8.14-8.99,10.72c0.01,0.58,0.26,1.06,0.72,1.39
					l0.26,0.18L54.778,97.51z"/>
				<path fill="#A3A3AF" d="M63.088,29.47c-0.85,0.09-1.5,0.31-1.96,0.52c-0.07,0.03-0.14,0.06-0.2,0.09
					C61.389,29.84,62.099,29.57,63.088,29.47z"/>
				<path fill="#A3A3AF" d="M60.579,30.28c0.07-0.04,0.15-0.09,0.24-0.14C60.729,30.2,60.648,30.24,60.579,30.28z"/>
				<path fill="#A3A3AF" d="M60.289,30.51c-0.01,0.01-0.03,0.02-0.03,0.03C60.269,30.52,60.278,30.51,60.289,30.51z"/>
				<polygon fill="#A3A3AF" points="60.208,30.57 50.438,38.31 50.429,38.31 				"/>
				<path fill="#A3A3AF" d="M59.878,61.23c0.03,0.03,0.05,0.07,0.08,0.1h-0.01L59.878,61.23z"/>
				<path fill="#A3A3AF" d="M60.909,115.79c-1.65,0.42-3.05,0.74-4.24,0.98C57.858,116.52,59.258,116.2,60.909,115.79z"/>
				<path fill="#A3A3AF" d="M55.418,68.25l-2.84,12.64l-11.66-2.09l-0.17,0.11c-0.07,0.05-0.65,0.46-0.58,1.35
					c0.18,2.3,4.67,5.48,13.33,9.43c-0.82,0.64-2,1.58-3.31,2.69l-0.52-1.3l0.65-0.26l-1.18-0.46c-0.12-0.04-12.37-4.83-13.98-12.42
					c-0.07-0.3-0.11-0.6-0.14-0.91c-0.77-8.1-0.05-10.72-0.01-10.84c0.02-0.08,2.1-8.15,17.18-7.67c0.4,0.02,0.82,0.03,1.24,0.06
					l0.98,0.06l0.11,2.31c-4.95,0.24-11.51,0.97-13.4,3.04c-0.45,0.49-0.64,1.04-0.59,1.64l0.04,0.39L55.418,68.25z"/>
				<path fill="#A3A3AF" d="M50.398,22.21c3.11,0,5.63,2.63,5.63,5.87s-2.52,5.87-5.63,5.87c-3.1,0-5.62-2.63-5.62-5.87
					S47.298,22.21,50.398,22.21z"/>
				<path fill="#A3A3AF" d="M53.358,117.33c0.74-0.1,1.66-0.24,2.79-0.46C55.028,117.09,54.108,117.24,53.358,117.33z"/>
				<path fill="#A3A3AF" d="M52.688,88.77c0.28,0.13,0.57,0.26,0.87,0.4C53.258,89.04,52.979,88.9,52.688,88.77z"/>
				<path fill="#A3A3AF" d="M53.458,58.08h-0.01l-0.12-0.21C53.409,58,53.449,58.07,53.458,58.08z"/>
				<path fill="#A3A3AF" d="M52.199,117.46c0.13-0.01,0.27-0.03,0.42-0.04C52.468,117.44,52.329,117.45,52.199,117.46z"/>
				<path fill="#A3A3AF" d="M48.929,90.83l-0.1-0.05c0.06,0.02,0.1,0.04,0.12,0.05c-0.14,0.06-0.27,0.12-0.4,0.17L48.929,90.83z"/>
				<path fill="#A3A3AF" d="M49.979,39.02c-3.5,6.54,2,16.56,3.23,18.66C52.008,55.68,46.378,45.65,49.979,39.02z"/>
				<path fill="#A3A3AF" d="M47.179,90.05c0.15,0.07,0.29,0.14,0.42,0.2C47.468,90.19,47.329,90.12,47.179,90.05z"/>
				<path fill="#A3A3AF" d="M36.599,82.14c2.76,3.75,7.57,6.45,10.3,7.78C44.238,88.65,39.369,85.94,36.599,82.14z"/>
				<path fill="#A3A3AF" d="M34.519,111.33c3.59,0,6.51,2.74,6.51,6.12c0,3.39-2.92,6.13-6.51,6.13c-3.6,0-6.51-2.74-6.51-6.13
					C28.008,114.07,30.918,111.33,34.519,111.33z"/>
				<path fill="#A3A3AF" d="M37.539,61.82c-0.34,0.29-0.64,0.58-0.91,0.85C36.898,62.39,37.199,62.1,37.539,61.82z"/>
				<path fill="#A3A3AF" d="M36.159,81.5c0.14,0.22,0.29,0.43,0.44,0.64C36.438,81.93,36.289,81.72,36.159,81.5z"/>
				<path fill="#A3A3AF" d="M35.758,80.85c0.12,0.22,0.26,0.44,0.4,0.65C36.008,81.29,35.878,81.07,35.758,80.85z"/>
				<path fill="#A3A3AF" d="M36.608,62.69c-0.81,0.85-1.32,1.65-1.64,2.26C35.278,64.34,35.789,63.53,36.608,62.69z"/>
				<path fill="#A3A3AF" d="M35.429,80.22c0.1,0.21,0.21,0.42,0.33,0.63C35.639,80.64,35.528,80.44,35.429,80.22z"/>
				<path fill="#A3A3AF" d="M35.108,79.48c0.07,0.18,0.14,0.36,0.23,0.54C35.249,79.85,35.168,79.66,35.108,79.48z"/>
				<path fill="#A3A3AF" d="M34.898,78.88c0.05,0.2,0.13,0.4,0.21,0.6C35.019,79.28,34.949,79.08,34.898,78.88z"/>
				<path fill="#A3A3AF" d="M34.628,65.73c-0.04,0.11-0.06,0.19-0.08,0.24C34.559,65.91,34.588,65.83,34.628,65.73z"/>
				<path fill="#A3A3AF" d="M34.249,67.89c-0.01,0.15-0.02,0.3-0.03,0.47C34.229,68.19,34.238,68.03,34.249,67.89z"/>
				<path fill="#A3A3AF" d="M25.738,63.37c3.42,0,6.2,2.75,6.2,6.16c0,3.4-2.78,6.15-6.2,6.15c-3.42,0-6.2-2.75-6.2-6.15
					C19.539,66.12,22.318,63.37,25.738,63.37z"/>
			</g>
			<g>
				<path fill="none" stroke="#999999" stroke-width="0.5" stroke-miterlimit="10" d="M56.028,28.08c0,3.24-2.52,5.87-5.63,5.87
					c-3.1,0-5.62-2.63-5.62-5.87s2.52-5.87,5.62-5.87C53.508,22.21,56.028,24.84,56.028,28.08z"/>
				<path fill="none" stroke="#999999" stroke-width="0.5" stroke-miterlimit="10" d="M101.599,11.58c0,3.18-2.63,5.75-5.88,5.75
					c-3.24,0-5.87-2.57-5.87-5.75s2.63-5.75,5.87-5.75C98.968,5.83,101.599,8.4,101.599,11.58z"/>
				<path fill="none" stroke="#999999" stroke-width="0.5" stroke-miterlimit="10" d="M148.048,27.77c0,3.38-2.87,6.12-6.42,6.12
					c-3.54,0-6.42-2.74-6.42-6.12c0-3.39,2.88-6.13,6.42-6.13C145.179,21.64,148.048,24.38,148.048,27.77z"/>
				<path fill="none" stroke="#999999" stroke-width="0.5" stroke-miterlimit="10" d="M41.028,117.45c0,3.39-2.92,6.13-6.51,6.13
					c-3.6,0-6.51-2.74-6.51-6.13c0-3.38,2.91-6.12,6.51-6.12C38.108,111.33,41.028,114.07,41.028,117.45z"/>
				<path fill="none" stroke="#999999" stroke-width="0.5" stroke-miterlimit="10" d="M78.958,147.83c0,3.45-2.85,6.25-6.37,6.25
					c-3.53,0-6.38-2.8-6.38-6.25s2.85-6.25,6.38-6.25C76.108,141.58,78.958,144.38,78.958,147.83z"/>
				<path fill="none" stroke="#999999" stroke-width="0.5" stroke-miterlimit="10" d="M126.208,147.45c0,3.32-2.69,6-6,6
					s-6-2.68-6-6c0-3.31,2.69-6,6-6S126.208,144.14,126.208,147.45z"/>
				<path fill="none" stroke="#999999" stroke-width="0.5" stroke-miterlimit="10" d="M165.019,117.58c0,3.45-2.87,6.25-6.4,6.25
					c-3.53,0-6.4-2.8-6.4-6.25s2.87-6.25,6.4-6.25C162.148,111.33,165.019,114.13,165.019,117.58z"/>
				<path fill="none" stroke="#999999" stroke-width="0.5" stroke-miterlimit="10" d="M31.938,69.53c0,3.4-2.78,6.15-6.2,6.15
					c-3.42,0-6.2-2.75-6.2-6.15c0-3.41,2.78-6.16,6.2-6.16C29.159,63.37,31.938,66.12,31.938,69.53z"/>
				<path fill="none" stroke="#999999" stroke-width="0.5" stroke-miterlimit="10" d="M170.458,69.74c0,2.97-2.41,5.38-5.37,5.38
					c-2.97,0-5.38-2.41-5.38-5.38c0-2.97,2.41-5.37,5.38-5.37C168.048,64.37,170.458,66.77,170.458,69.74z"/>
				<path fill="none" stroke="#999999" stroke-miterlimit="10" d="M81.199,142.67c-0.82,0-1.63-0.13-2.4-0.38l-11.49-3.73
					c-0.33-0.16-7.13-3.7-3.79-17.99c-1.58,0.46-5.44,1.44-9.45,1.44c-4.87,0-8.49-1.38-10.75-4.11l-5.29-9.07
					c-0.06-0.15-4.14-11.72,9.65-17.99c-3.39-1.5-12.06-5.94-13.5-12.69c-0.07-0.34-0.13-0.68-0.16-1.02
					c-0.81-8.5-0.01-11.1,0.02-11.2c0.01-0.06,2.1-8.9,18.18-8.41c0.11,0.01,0.22,0.01,0.33,0.01c-1.64-2.83-6.9-12.95-2.56-19.48
					l0.08-0.09l9.83-7.77c0,0,0.3-0.32,0.96-0.64c0.67-0.31,1.69-0.63,3.16-0.63c2.71,0,7.43,1.15,14.66,6.57
					c1.01-3.5,5.21-16.66,11.17-16.66h13.36c0.27,0.02,6.01,0.69,9.09,16.61c2.12-1.59,9.53-6.82,15.15-6.82
					c1.64,0,3.01,0.44,4.08,1.32c5.42,4.49,8.66,7.44,9.01,7.77c0.21,0.16,5.32,4.24-1.56,18.92c3.27,0.26,15.41,1.63,17.7,7.56
					c2.32,6,2.44,10.71,2.44,11.41c0.28,0.85,1.59,6.86-13.81,14.62c2.3,2.32,10.59,11.37,7.36,17.59l-5.23,9.81
					c-0.14,0.75-1.16,3.95-8.31,3.95c-3.26,0-7.38-0.68-12.25-2.03c0.59,2.91,2.24,13.28-2.53,19.35l-0.11,0.14l-0.08,0.02
					l-13.34,3.02v-0.01c-0.45,0.23-1.53,0.25-1.54,0.25c-2.36,0-7.24-1.38-13.55-10.58C94.099,134.16,87.909,142.67,81.199,142.67z"
					/>
				<path fill="none" stroke="#999999" stroke-miterlimit="10" d="M94.838,132.15c0.22-0.31,0.41-0.59,0.54-0.8
					c0.06-0.07,0.1-0.14,0.14-0.2c0-0.01,0-0.01,0-0.01l0.04-0.05c0.04-0.06,0.07-0.12,0.1-0.16l0.06-0.1l0.17,0.26"/>
				<path fill="none" stroke="#999999" stroke-miterlimit="10" d="M82.688,142.02c0.2-0.03,0.4-0.07,0.59-0.13
					c0.46-0.11,0.91-0.27,1.35-0.46c4.34-1.77,8.13-6.39,9.94-8.91c0.07-0.09,0.13-0.17,0.18-0.25"/>
				<path fill="none" stroke="#999999" stroke-miterlimit="10" d="M81.849,142.14c0.16-0.01,0.32-0.03,0.48-0.06"/>
				<path fill="none" stroke="#999999" stroke-miterlimit="10" d="M82.329,142.08c-0.16,0.03-0.32,0.05-0.48,0.06
					c-0.21,0.02-0.42,0.03-0.63,0.03"/>
				<path fill="none" stroke="#999999" stroke-miterlimit="10" d="M82.329,142.08c0.07,0,0.14-0.01,0.21-0.03
					c0.05-0.01,0.1-0.02,0.15-0.03"/>
				<path fill="none" stroke="#999999" stroke-miterlimit="10" d="M94.749,132.27c-0.06,0.08-0.12,0.16-0.18,0.25
					c-1.84,2.51-5.64,7.11-9.94,8.91c-0.44,0.18-0.89,0.34-1.35,0.46c-0.2,0.05-0.39,0.1-0.59,0.13"/>
				<path fill="none" stroke="#999999" stroke-miterlimit="10" d="M94.749,132.27c0.04-0.04,0.06-0.08,0.09-0.12"/>
				<path fill="none" stroke="#999999" stroke-miterlimit="10" d="M95.378,131.35c-0.14,0.21-0.33,0.48-0.54,0.8"/>
				<path fill="none" stroke="#999999" stroke-miterlimit="10" d="M63.349,124.23c0.08-0.58,0.17-1.19,0.29-1.82"/>
				<path fill="none" stroke="#999999" stroke-miterlimit="10" d="M67.128,137.87c-1.21-0.86-4.95-4.3-3.8-13.49"/>
				<path fill="none" stroke="#999999" stroke-miterlimit="10" d="M63.329,124.38c-1.21,9.33,2.57,12.67,3.8,13.49
					c0.03,0.02,0.05,0.04,0.08,0.05c0.01,0.01,0.02,0.01,0.03,0.02c0.01,0.01,0.03,0.02,0.04,0.03c0.02,0.01,0.04,0.02,0.05,0.03
					c0.01,0.01,0.02,0.02,0.03,0.02c0.02,0.01,0.03,0.02,0.04,0.02c0.02,0.01,0.02,0.02,0.03,0.02c0.01,0,0.02,0.01,0.03,0.01
					c0,0.01,0.01,0.01,0.01,0.01c0.01,0.01,0.02,0.01,0.02,0.01l11.47,3.72c0.37,0.12,0.75,0.21,1.14,0.27"/>
				<path fill="none" stroke="#999999" stroke-miterlimit="10" d="M63.329,124.38c0-0.02,0-0.04,0.01-0.05c0-0.01,0-0.02,0-0.03
					c0-0.02,0-0.05,0.01-0.07"/>
				<path fill="none" stroke="#999999" stroke-miterlimit="10" d="M64.099,120.28c-0.18,0.74-0.33,1.45-0.46,2.13
					c-0.12,0.63-0.22,1.24-0.29,1.82"/>
				<path fill="none" stroke="#999999" stroke-miterlimit="10" d="M110.468,141.66c-0.21,0.06-0.62,0.15-1.18,0.15"/>
				<path fill="none" stroke="#999999" stroke-miterlimit="10" d="M49.449,120.49c1.37,0.35,2.91,0.52,4.62,0.52
					c5.11,0,9.93-1.64,9.98-1.65l0.87-0.31l-0.23,0.9c-3.58,14.1,2.93,17.65,3,17.68l11.42,3.7c0.68,0.23,1.38,0.34,2.09,0.34
					c6.67,0,13.16-9.66,14.01-10.96c0.06-0.08,0.09-0.13,0.09-0.14l0.41-0.66l0.43,0.64c6.25,9.36,10.91,10.76,13.14,10.76
					c0.78,0,1.21-0.18,1.23-0.19l13.16-2.99c5.15-6.77,2.09-19.05,2.06-19.18l-0.22-0.84l0.84,0.24c5.13,1.47,9.43,2.22,12.78,2.22
					c6.84,0,7.33-3.14,7.33-3.17l0.04-0.14l5.28-9.91c3.29-6.33-7.56-16.8-7.67-16.91l-0.51-0.49l0.64-0.32
					c6.74-3.32,10.27-6.29,12.1-8.6c2.49-3.16,1.83-5.13,1.81-5.16l-0.03-0.14c0-0.1,0.05-4.9-2.38-11.18
					c-2.35-6.08-17.41-6.96-17.56-6.97l-0.75-0.04l0.33-0.68c4.16-8.6,4.1-13.5,3.39-16.05c-0.47-1.67-1.23-2.33-1.25-2.34
					c-0.63-0.57-3.85-3.49-9.01-7.75c-0.88-0.73-2.04-1.1-3.44-1.1c-6.12,0-15.09,7.03-15.18,7.1l-0.65,0.52l-0.15-0.82
					c-2.86-15.69-8.26-16.59-8.31-16.59h-13.31c-5.86,0-10.36,16.46-10.41,16.63l-0.19,0.72l-0.59-0.45
					c-7.33-5.63-12.01-6.81-14.64-6.81c-2.41,0-3.44,1-3.45,1.01l-9.79,7.74c-4.55,6.98,3.02,19.02,3.1,19.14l0.53,0.83l-0.98-0.06
					c-0.42-0.03-0.84-0.04-1.24-0.06c-15.08-0.48-17.16,7.59-17.18,7.67c-0.04,0.12-0.76,2.74,0.01,10.84
					c0.03,0.31,0.07,0.61,0.14,0.91c1.61,7.59,13.86,12.38,13.98,12.42l1.18,0.46l-0.65,0.26l-0.52,0.21
					c-14.14,5.75-10.39,16.66-10.22,17.12l5.21,8.92C45.398,118.85,47.179,119.91,49.449,120.49z"/>
				<path fill="none" stroke="#999999" stroke-miterlimit="10" d="M64.108,120.23l0.1-0.39v-0.01c0,0-0.06,0.02-0.15,0.05
					c-0.12,0.04-0.3,0.09-0.54,0.17"/>
				<path fill="none" stroke="#999999" stroke-miterlimit="10" d="M62.218,120.4c0.19-0.05,0.36-0.09,0.53-0.14
					c0.13-0.03,0.25-0.07,0.36-0.1c0.12-0.03,0.23-0.06,0.33-0.09c0.03-0.01,0.05-0.02,0.08-0.02c0.1-0.03,0.19-0.06,0.27-0.08
					l0.27-0.09l0.15-0.04"/>
				<path fill="none" stroke="#999999" stroke-miterlimit="10" d="M126.289,119.16l-0.03-0.13l-0.04-0.2
					c0.04,0.01,0.07,0.02,0.1,0.03l0.08,0.03c0.04,0.01,0.08,0.02,0.12,0.03"/>
				<path fill="none" stroke="#999999" stroke-miterlimit="10" d="M126.218,118.83h-0.01c0,0.01,0.02,0.08,0.05,0.2"/>
				<path fill="none" stroke="#999999" stroke-miterlimit="10" d="M149.628,87.24c-0.51,0.32-1.06,0.64-1.63,0.97"/>
				<path fill="none" stroke="#999999" stroke-miterlimit="10" d="M158.619,75.68l0.01,0.04c0.02,0.06,0.05,0.15,0.07,0.29
					c0.19,1.09,0.25,5.39-8.85,11.1"/>
				<path fill="none" stroke="#999999" stroke-miterlimit="10" d="M149.849,87.11c9.15-5.69,9.11-9.9,8.85-11.1"/>
				<path fill="none" stroke="#999999" stroke-miterlimit="10" d="M149.849,87.11c-0.03,0.03-0.07,0.05-0.11,0.07
					c-0.04,0.01-0.07,0.04-0.11,0.06"/>
				<path fill="none" stroke="#999999" stroke-miterlimit="10" d="M147.999,88.21c0.57-0.32,1.12-0.64,1.63-0.97"/>
				<path fill="none" stroke="#999999" stroke-miterlimit="10" d="M152.769,106.01c1.14-5.51-5.09-12.62-7.48-15.09"/>
				<path fill="none" stroke="#999999" stroke-miterlimit="10" d="M152.599,106.69c0.07-0.21,0.12-0.42,0.16-0.64"/>
				<path fill="none" stroke="#999999" stroke-miterlimit="10" d="M152.588,106.71c-0.07,0.21-0.16,0.42-0.25,0.63
					C152.438,107.13,152.519,106.92,152.588,106.71z"/>
				<path fill="none" stroke="#999999" stroke-miterlimit="10" d="M152.588,106.71c0-0.01,0.01-0.02,0.01-0.02"/>
				<path fill="none" stroke="#999999" stroke-miterlimit="10" d="M152.758,106.05c-0.05,0.22-0.1,0.43-0.16,0.64"/>
				<path fill="none" stroke="#999999" stroke-miterlimit="10" d="M152.758,106.05c0.01-0.01,0.01-0.02,0.01-0.04"/>
				<path fill="none" stroke="#999999" stroke-miterlimit="10" d="M145.289,90.92c2.29,2.43,8.55,9.62,7.48,15.09"/>
				<path fill="none" stroke="#999999" stroke-miterlimit="10" d="M145.289,90.92c0,0,0-0.01-0.01-0.01
					c-0.16-0.16-0.3-0.3-0.41-0.42c-0.01-0.01-0.02-0.02-0.02-0.02c-0.05-0.05-0.1-0.1-0.14-0.14l-0.25-0.25l0.32-0.16
					c0.1-0.05,0.2-0.1,0.3-0.15c0.25-0.12,0.49-0.25,0.73-0.37c0.09-0.05,0.17-0.09,0.26-0.14c0.38-0.2,0.74-0.39,1.1-0.59
					c0.29-0.15,0.56-0.31,0.83-0.46"/>
				<path fill="none" stroke="#999999" stroke-miterlimit="10" d="M34.218,68.36c0.01-0.17,0.02-0.33,0.03-0.47"/>
				<path fill="none" stroke="#999999" stroke-miterlimit="10" d="M35.338,80.02c-0.09-0.18-0.16-0.36-0.23-0.54
					c-0.08-0.2-0.16-0.4-0.21-0.6"/>
				<path fill="none" stroke="#999999" stroke-miterlimit="10" d="M46.898,89.92c-2.73-1.33-7.54-4.03-10.3-7.78
					c-0.15-0.21-0.3-0.42-0.44-0.64c-0.14-0.21-0.28-0.43-0.4-0.65c-0.12-0.21-0.23-0.42-0.33-0.63"/>
				<path fill="none" stroke="#999999" stroke-miterlimit="10" d="M47.599,90.25c-0.13-0.06-0.27-0.13-0.42-0.2"/>
				<path fill="none" stroke="#999999" stroke-miterlimit="10" d="M48.958,90.83h-0.01c-0.02-0.01-0.06-0.03-0.12-0.05"/>
				<path fill="none" stroke="#999999" stroke-miterlimit="10" d="M48.458,91.04c0.03-0.01,0.06-0.03,0.09-0.04
					c0.13-0.05,0.26-0.11,0.4-0.17"/>
				<polyline fill="none" stroke="#999999" stroke-miterlimit="10" points="48.938,90.83 48.929,90.83 48.548,91 				"/>
				<line fill="none" stroke="#999999" stroke-miterlimit="10" x1="48.829" y1="90.78" x2="48.929" y2="90.83"/>
				<path fill="none" stroke="#999999" stroke-miterlimit="10" d="M48.829,90.78c-0.01,0-0.02-0.01-0.04-0.01l-0.18-0.08
					c-0.06-0.02-0.12-0.05-0.2-0.08V90.6c-0.06-0.02-0.12-0.05-0.18-0.07c-0.09-0.04-0.19-0.08-0.3-0.13
					c-0.06-0.03-0.13-0.06-0.2-0.09c-0.03-0.02-0.06-0.03-0.1-0.05c-0.01,0-0.02-0.01-0.03-0.01"/>
				<path fill="none" stroke="#999999" stroke-miterlimit="10" d="M47.179,90.05c0.15,0.07,0.29,0.14,0.42,0.2"/>
				<path fill="none" stroke="#999999" stroke-miterlimit="10" d="M47.179,90.05c-0.09-0.04-0.19-0.08-0.28-0.13"/>
				<path fill="none" stroke="#999999" stroke-miterlimit="10" d="M35.429,80.22c0.1,0.22,0.21,0.42,0.33,0.63
					c0.12,0.22,0.25,0.44,0.4,0.65c0.13,0.22,0.28,0.43,0.44,0.64c2.77,3.8,7.64,6.51,10.3,7.78"/>
				<path fill="none" stroke="#999999" stroke-miterlimit="10" d="M35.429,80.22c-0.04-0.06-0.07-0.13-0.09-0.2"/>
				<path fill="none" stroke="#999999" stroke-miterlimit="10" d="M34.898,78.88c0.05,0.2,0.12,0.4,0.21,0.6
					c0.06,0.18,0.14,0.37,0.23,0.54"/>
				<path fill="none" stroke="#999999" stroke-miterlimit="10" d="M34.898,78.88c-0.02-0.04-0.03-0.07-0.04-0.1
					c-0.01-0.02-0.01-0.04-0.01-0.05c-0.07-0.23-0.13-0.45-0.18-0.68c-0.07-0.32-0.12-0.65-0.15-0.97c-0.27-2.83-0.36-5-0.36-6.62
					c0-0.38,0-0.73,0.01-1.05c0-0.01,0-0.03,0-0.04c0.01-0.15,0.01-0.29,0.02-0.42c0-0.02,0-0.03,0-0.05
					c0.01-0.13,0.01-0.26,0.02-0.37c0-0.06,0-0.12,0.01-0.17"/>
				<path fill="none" stroke="#999999" stroke-miterlimit="10" d="M34.519,66.07c0,0.01-0.01,0.02-0.01,0.04c0,0,0,0,0,0.01
					c-0.01,0.01-0.01,0.03-0.02,0.05c0,0.01,0,0.01,0,0.02c0,0.02-0.01,0.04-0.02,0.07c0,0.01,0,0.01,0,0.02
					c-0.01,0.03-0.02,0.06-0.02,0.1c-0.05,0.23-0.11,0.58-0.16,1.1c-0.01,0.08-0.02,0.17-0.03,0.26c0,0.01,0,0.03,0,0.05
					c0,0.03,0,0.06-0.01,0.1c-0.01,0.15-0.02,0.3-0.03,0.47"/>
				<path fill="none" stroke="#999999" stroke-miterlimit="10" d="M157.159,67.13c-0.27-0.88-0.58-1.8-0.95-2.76
					c-0.04-0.09-0.07-0.18-0.12-0.27c-0.04-0.11-0.09-0.21-0.15-0.31c-0.1-0.19-0.21-0.37-0.34-0.55c-0.11-0.18-0.25-0.35-0.4-0.52
					c-0.13-0.17-0.29-0.34-0.46-0.49c-4-3.95-13.42-4.92-15.96-5.11c-0.07-0.01-0.14-0.02-0.2-0.02c-0.05,0-0.09,0-0.13-0.01
					l-0.24-0.01c0.02-0.04,0.04-0.09,0.06-0.13"/>
				<path fill="none" stroke="#999999" stroke-miterlimit="10" d="M138.579,57.1c0.06,0.01,0.13,0.02,0.2,0.02
					c2.43,0.2,11.94,1.22,15.96,5.11c0.16,0.16,0.32,0.32,0.46,0.49c0.15,0.17,0.28,0.34,0.4,0.52c0.13,0.18,0.24,0.36,0.34,0.55
					c0.06,0.1,0.11,0.2,0.15,0.31"/>
				<path fill="none" stroke="#999999" stroke-miterlimit="10" d="M36.628,62.67c0.27-0.27,0.57-0.56,0.91-0.85"/>
				<path fill="none" stroke="#999999" stroke-miterlimit="10" d="M34.968,64.95c0.32-0.61,0.83-1.41,1.64-2.26"/>
				<path fill="none" stroke="#999999" stroke-miterlimit="10" d="M34.539,66c0-0.01,0.01-0.02,0.01-0.03
					c0.02-0.05,0.04-0.13,0.08-0.24"/>
				<path fill="none" stroke="#999999" stroke-miterlimit="10" d="M34.628,65.73c-0.04,0.1-0.07,0.18-0.08,0.24"/>
				<path fill="none" stroke="#999999" stroke-miterlimit="10" d="M34.628,65.73c0.07-0.19,0.18-0.45,0.34-0.77v-0.01"/>
				<path fill="none" stroke="#999999" stroke-miterlimit="10" d="M36.608,62.69c-0.82,0.84-1.33,1.65-1.64,2.26"/>
				<path fill="none" stroke="#999999" stroke-miterlimit="10" d="M36.608,62.69c0.01,0,0.01-0.01,0.02-0.02"/>
				<path fill="none" stroke="#999999" stroke-miterlimit="10" d="M39.389,60.55c-0.4,0.23-0.76,0.46-1.1,0.71
					c-0.12,0.07-0.23,0.16-0.35,0.25c-0.14,0.11-0.27,0.22-0.4,0.31c-0.34,0.28-0.64,0.57-0.91,0.85"/>
				<polyline fill="none" stroke="#999999" stroke-miterlimit="10" points="53.329,57.87 53.449,58.08 53.119,58.06 				"/>
				<path fill="none" stroke="#999999" stroke-miterlimit="10" d="M49.979,39.02c-3.6,6.63,2.03,16.66,3.23,18.66"/>
				<path fill="none" stroke="#999999" stroke-miterlimit="10" d="M53.208,57.68c-1.23-2.1-6.73-12.12-3.23-18.66"/>
				<path fill="none" stroke="#999999" stroke-miterlimit="10" d="M53.208,57.68c0.05,0.08,0.09,0.14,0.12,0.19"/>
				<path fill="none" stroke="#999999" stroke-miterlimit="10" d="M53.449,58.08h0.01c-0.01-0.01-0.05-0.08-0.13-0.21"/>
				<path fill="none" stroke="#999999" stroke-miterlimit="10" d="M52.068,58.02c0.04,0,0.09,0,0.13,0
					c0.21,0.01,0.41,0.02,0.62,0.03"/>
				<path fill="none" stroke="#999999" stroke-miterlimit="10" d="M138.699,56.04c0.32-0.7,0.62-1.38,0.89-2.04
					c4.82-11.65,1.28-15.35,0.71-15.84c-0.02-0.03-0.04-0.04-0.05-0.05c-0.01-0.01-0.01-0.01-0.01-0.01"/>
				<path fill="none" stroke="#999999" stroke-miterlimit="10" d="M140.249,38.11c0.01,0.01,0.03,0.03,0.05,0.05
					c0.64,0.63,3.92,4.58-0.71,15.84"/>
				<path fill="none" stroke="#999999" stroke-miterlimit="10" d="M60.929,30.08c0.06-0.03,0.13-0.06,0.2-0.09
					c0.46-0.21,1.11-0.43,1.96-0.52c0.29-0.03,0.6-0.05,0.93-0.05"/>
				<path fill="none" stroke="#999999" stroke-miterlimit="10" d="M60.579,30.28c0.07-0.04,0.15-0.08,0.24-0.14"/>
				<path fill="none" stroke="#999999" stroke-miterlimit="10" d="M60.258,30.54c0.01-0.02,0.02-0.03,0.03-0.03"/>
				<path fill="none" stroke="#999999" stroke-miterlimit="10" d="M49.979,39.02c0.13-0.22,0.26-0.44,0.4-0.66l0.02-0.03l0.03-0.02
					h0.01l9.77-7.74"/>
				<line fill="none" stroke="#999999" stroke-miterlimit="10" x1="60.208" y1="30.57" x2="50.429" y2="38.31"/>
				<path fill="none" stroke="#999999" stroke-miterlimit="10" d="M60.208,30.57l0.02-0.01c0,0,0,0,0.01-0.01c0,0,0.01,0,0.02-0.01"
					/>
				<path fill="none" stroke="#999999" stroke-miterlimit="10" d="M60.289,30.51c-0.01,0.01-0.03,0.02-0.03,0.03"/>
				<path fill="none" stroke="#999999" stroke-miterlimit="10" d="M60.289,30.51c0.03-0.03,0.07-0.07,0.13-0.11l0.16-0.12"/>
				<path fill="none" stroke="#999999" stroke-miterlimit="10" d="M60.818,30.14c-0.09,0.05-0.17,0.1-0.24,0.14"/>
				<line fill="none" stroke="#999999" stroke-miterlimit="10" x1="60.818" y1="30.14" x2="60.929" y2="30.08"/>
				<path fill="none" stroke="#999999" stroke-miterlimit="10" d="M63.088,29.47c-0.99,0.1-1.7,0.37-2.16,0.61"/>
				<path fill="none" stroke="#999999" stroke-miterlimit="10" d="M134.708,33.27c-0.26-0.23-0.52-0.45-0.79-0.68
					c-0.01,0-0.01,0-0.01,0c-0.26-0.23-0.53-0.45-0.81-0.68c-0.01-0.01-0.03-0.03-0.05-0.04c-0.28-0.24-0.57-0.49-0.87-0.73
					c-0.01-0.01-0.02-0.02-0.03-0.02c-0.15-0.13-0.3-0.26-0.45-0.38c-0.16-0.14-0.32-0.27-0.49-0.41c-0.1-0.08-0.19-0.15-0.3-0.23"
					/>
				<path fill="none" stroke="#999999" stroke-miterlimit="10" d="M139.599,37.52c-0.1-0.07-0.21-0.17-0.33-0.29
					c-0.16-0.14-0.35-0.3-0.55-0.49"/>
				<path fill="none" stroke="#999999" stroke-miterlimit="10" d="M140.019,37.91c-0.06-0.05-0.14-0.12-0.22-0.2"/>
				<path fill="none" stroke="#999999" stroke-miterlimit="10" d="M139.798,37.71c0.09,0.07,0.16,0.14,0.22,0.2
					c0.01,0,0.01,0,0.01,0.01c0.01,0.01,0.02,0.02,0.03,0.02c0.01,0.01,0.02,0.02,0.03,0.03c0.05,0.05,0.09,0.08,0.12,0.11"/>
				<path fill="none" stroke="#999999" stroke-miterlimit="10" d="M139.798,37.71c-0.06-0.06-0.13-0.12-0.2-0.19"/>
				<path fill="none" stroke="#999999" stroke-miterlimit="10" d="M138.718,36.74c0.21,0.18,0.39,0.35,0.55,0.49
					c0.12,0.11,0.23,0.2,0.33,0.29"/>
				<path fill="none" stroke="#999999" stroke-miterlimit="10" d="M138.718,36.74c-0.08-0.07-0.17-0.15-0.26-0.23
					c-0.12-0.1-0.25-0.22-0.39-0.34c-0.03-0.03-0.07-0.06-0.1-0.09c-0.09-0.08-0.18-0.16-0.27-0.24c-0.09-0.08-0.18-0.16-0.28-0.24
					c-0.06-0.06-0.13-0.12-0.2-0.18c-0.13-0.11-0.26-0.22-0.4-0.34c-0.17-0.16-0.36-0.32-0.55-0.48c-0.03-0.02-0.07-0.05-0.1-0.08
					c-0.06-0.06-0.12-0.11-0.18-0.16c0,0,0,0-0.01,0c-0.14-0.13-0.28-0.25-0.42-0.37c-0.03-0.02-0.06-0.05-0.1-0.08
					c-0.21-0.19-0.44-0.38-0.67-0.58c-0.03-0.01-0.05-0.04-0.08-0.06"/>
				<path fill="none" stroke="#999999" stroke-miterlimit="10" d="M133.918,32.59c0.27,0.24,0.53,0.46,0.79,0.68"/>
				<path fill="none" stroke="#999999" stroke-miterlimit="10" d="M79.128,35.71c-0.01,0.07-0.03,0.13-0.05,0.18
					c-0.01,0.03-0.01,0.06-0.02,0.08l-0.02,0.07l-0.05,0.17l-0.01,0.04c0,0.01,0,0.01,0,0.02l-0.01,0.04
					c-0.01,0.01-0.01,0.02-0.01,0.02l-0.13-0.1"/>
				<path fill="none" stroke="#999999" stroke-miterlimit="10" d="M79.429,34.74c-0.03,0.1-0.06,0.19-0.09,0.28"/>
				<path fill="none" stroke="#999999" stroke-miterlimit="10" d="M79.338,35.02c0.03-0.09,0.05-0.18,0.09-0.28
					c0.02-0.09,0.06-0.19,0.09-0.29c0.06-0.2,0.13-0.43,0.21-0.66c0.05-0.16,0.11-0.33,0.17-0.51c0.06-0.19,0.13-0.39,0.2-0.59"/>
				<path fill="none" stroke="#999999" stroke-miterlimit="10" d="M79.338,35.02c-0.02,0.08-0.05,0.16-0.07,0.23
					c-0.03,0.09-0.05,0.17-0.08,0.25v0.01c-0.02,0.07-0.04,0.14-0.06,0.2"/>
				<path fill="none" stroke="#999999" stroke-miterlimit="10" d="M79.079,35.89c0.02-0.06,0.04-0.12,0.05-0.18"/>
				<path fill="none" stroke="#999999" stroke-miterlimit="10" d="M115.488,33.84c-0.09,0.06-0.18,0.11-0.27,0.18
					c-0.07,0.04-0.14,0.09-0.21,0.14c-0.09,0.05-0.19,0.11-0.27,0.17c-1.35,0.91-2.32,1.64-2.66,1.91l-0.12,0.09
					c-0.02-0.09-0.03-0.19-0.05-0.28"/>
				<path fill="none" stroke="#999999" stroke-miterlimit="10" d="M116.369,33.28c-0.18,0.11-0.35,0.22-0.52,0.33"/>
				<path fill="none" stroke="#999999" stroke-miterlimit="10" d="M117.458,32.62c-0.1,0.06-0.19,0.11-0.28,0.17"/>
				<path fill="none" stroke="#999999" stroke-miterlimit="10" d="M118.628,31.96c-0.2,0.11-0.39,0.22-0.58,0.33"/>
				<path fill="none" stroke="#999999" stroke-miterlimit="10" d="M119.238,31.64c-0.2,0.1-0.4,0.21-0.6,0.32"/>
				<path fill="none" stroke="#999999" stroke-miterlimit="10" d="M121.068,30.76c-0.32,0.14-0.64,0.29-0.95,0.44"/>
				<path fill="none" stroke="#999999" stroke-miterlimit="10" d="M123.688,29.77c-0.22,0.06-0.44,0.13-0.65,0.21"/>
				<path fill="none" stroke="#999999" stroke-miterlimit="10" d="M125.168,29.38c-0.15,0.03-0.3,0.06-0.45,0.1"/>
				<path fill="none" stroke="#999999" stroke-miterlimit="10" d="M124.718,29.48c0.15-0.04,0.3-0.07,0.45-0.1
					c0.14-0.03,0.28-0.06,0.43-0.08c0.13-0.03,0.26-0.05,0.38-0.06c0.11-0.02,0.22-0.04,0.33-0.05c0.01,0,0.02,0,0.02,0
					c0.37-0.05,0.73-0.07,1.09-0.07"/>
				<path fill="none" stroke="#999999" stroke-miterlimit="10" d="M124.718,29.48c-0.1,0.03-0.21,0.06-0.31,0.08
					c-0.14,0.03-0.27,0.07-0.4,0.11c-0.11,0.03-0.22,0.06-0.32,0.1"/>
				<path fill="none" stroke="#999999" stroke-miterlimit="10" d="M123.039,29.98c0.22-0.08,0.43-0.15,0.65-0.21"/>
				<path fill="none" stroke="#999999" stroke-miterlimit="10" d="M123.039,29.98c-0.2,0.07-0.41,0.15-0.61,0.22
					c-0.07,0.02-0.13,0.05-0.19,0.07c-0.39,0.16-0.78,0.33-1.17,0.49"/>
				<path fill="none" stroke="#999999" stroke-miterlimit="10" d="M120.119,31.2c0.31-0.15,0.63-0.29,0.95-0.44"/>
				<path fill="none" stroke="#999999" stroke-miterlimit="10" d="M120.119,31.2c-0.3,0.15-0.59,0.3-0.88,0.44"/>
				<path fill="none" stroke="#999999" stroke-miterlimit="10" d="M118.639,31.96c0.2-0.1,0.4-0.21,0.6-0.32"/>
				<path fill="none" stroke="#999999" stroke-miterlimit="10" d="M118.639,31.96c-0.01,0.01-0.01,0-0.01,0"/>
				<path fill="none" stroke="#999999" stroke-miterlimit="10" d="M118.048,32.29c0.19-0.11,0.38-0.21,0.58-0.33"/>
				<path fill="none" stroke="#999999" stroke-miterlimit="10" d="M118.048,32.29c-0.2,0.12-0.4,0.23-0.59,0.33"/>
				<path fill="none" stroke="#999999" stroke-miterlimit="10" d="M117.179,32.79c0.09-0.05,0.19-0.11,0.28-0.17"/>
				<path fill="none" stroke="#999999" stroke-miterlimit="10" d="M117.179,32.79c-0.16,0.1-0.32,0.2-0.48,0.29
					c-0.03,0.01-0.06,0.03-0.09,0.05c-0.08,0.05-0.16,0.1-0.24,0.15"/>
				<path fill="none" stroke="#999999" stroke-miterlimit="10" d="M115.849,33.61c0.17-0.11,0.34-0.22,0.52-0.33"/>
				<path fill="none" stroke="#999999" stroke-miterlimit="10" d="M115.849,33.61c-0.12,0.08-0.24,0.15-0.36,0.23"/>
				<path fill="none" stroke="#999999" stroke-miterlimit="10" d="M115.218,34.02c0.09-0.06,0.18-0.12,0.27-0.18"/>
				<path fill="none" stroke="#999999" stroke-miterlimit="10" d="M111.818,35.6c-0.04-0.2-0.08-0.39-0.11-0.59
					c-0.21-1-0.42-1.93-0.63-2.8c-2.79-11.2-6.85-12.66-7.72-12.85c-0.03-0.01-0.05-0.01-0.07-0.02c-0.06,0-0.09-0.01-0.1-0.01"/>
				<path fill="none" stroke="#999999" stroke-miterlimit="10" d="M103.358,19.36c0.88,0.23,4.96,1.88,7.72,12.85"/>
				<path fill="none" stroke="#999999" stroke-miterlimit="10" d="M123.778,118.36c1.22,8.52-0.81,15.53-0.84,15.61l-0.44,1.47
					l-5.35-15l-13.28,3.72l5.63,15.02l-1.33-0.94c-8.7-6.16-11.2-12.05-11.91-14.96c-1.08,2.65-2.32,4.86-3.61,6.69
					c-4.59,6.55-9.72,8.31-9.78,8.33l-1.06,0.36l5.74-13.32l-12.33-5.35l-6.34,14.25l-0.4-1.26c-2.81-8.85-0.19-16.34,1.03-19.09
					c-11.76,3.58-16.55,4.12-18.36,4.12c-0.56,0-0.8-0.05-0.88-0.07l-0.08-0.02l-1-0.29l12.6-7.97l-7.01-12.15l-12.6,7.16
					l-0.26-0.18c-0.46-0.33-0.71-0.81-0.72-1.39c-0.04-2.58,5.05-7.39,8.99-10.72c1.31-1.11,2.49-2.05,3.31-2.69
					c-8.66-3.95-13.15-7.13-13.33-9.43c-0.07-0.89,0.51-1.3,0.58-1.35l0.17-0.11l11.66,2.09l2.84-12.64l-14.85-2.23l-0.04-0.39
					c-0.05-0.6,0.14-1.15,0.59-1.64c1.89-2.07,8.45-2.8,13.4-3.04c1.76-0.09,3.31-0.11,4.39-0.12c-6.84-8.79-6.45-17.93-6.45-18.03
					l0.06-1.14l11.2,11.46l8.21-8.09l-8.16-11.24l0.39-0.29c0.45-0.35,1.03-0.53,1.73-0.53c4.1,0,11.77,6.13,14.5,8.43
					c0.26-1.23,0.57-2.42,0.9-3.56c2.31-8.01,5.96-13.72,6-13.78l0.84-1.31l0.81,16.33h13.53l0.26-15.83l0.81,0.7
					c5.04,4.39,5.97,14.16,6.13,17c1.03-0.64,1.99-1.23,2.9-1.77c8.79-5.21,12.17-5.83,13.28-5.83c0.31,0,0.47,0.05,0.54,0.08
					l0.61,0.23L118.639,45l9.77,8.38l10.17-11.74l0.13,1.13c0.74,6.37-4.7,14.95-6.34,17.37c10.78,0.82,16.73,2.39,17.67,4.67
					c0.3,0.73,0.01,1.35-0.2,1.6l-0.13,0.14l-0.09,0.01l-13.8,1.7l2.79,12.08h15.36l-1.76,1.1c-6.63,4.06-12.4,5.85-14.54,6.42
					c9.63,10.06,11.36,14.05,11.1,15.62c-0.09,0.57-0.43,0.76-0.49,0.8l-0.22,0.11l-12.62-6.38l-5.33,11.36l12.62,7l-0.89,0.41
					c-1.83,0.86-3.99,1.3-6.4,1.3c-5.11,0-10.22-1.98-12.24-2.86C123.449,116.28,123.639,117.33,123.778,118.36z"/>
				<line fill="none" stroke="#999999" stroke-miterlimit="10" x1="82.708" y1="137.83" x2="84.729" y2="133.14"/>
				<path fill="none" stroke="#999999" stroke-miterlimit="10" d="M95.528,123.73l0.47-1.16c0.03-0.08,0.06-0.16,0.09-0.24"/>
				<path fill="none" stroke="#999999" stroke-miterlimit="10" d="M96.088,122.33c-0.03,0.08-0.06,0.16-0.09,0.24"/>
				<path fill="none" stroke="#999999" stroke-miterlimit="10" d="M96.088,122.33c0.02-0.03,0.03-0.07,0.04-0.11l0.15-0.38"/>
				<path fill="none" stroke="#999999" stroke-miterlimit="10" d="M96.458,121.33v0.01c-0.06,0.16-0.12,0.32-0.18,0.48"/>
				<path fill="none" stroke="#999999" stroke-miterlimit="10" d="M107.898,137.43c-0.04-0.03-0.08-0.05-0.11-0.09
					c-0.35-0.26-0.69-0.51-1.02-0.77c-8.54-6.65-10.01-12.81-10.26-14.67c-0.04-0.32-0.05-0.51-0.05-0.56"/>
				<path fill="none" stroke="#999999" stroke-miterlimit="10" d="M96.278,121.84l0.14-0.36l0.08,0.46l0.07,0.44
					c0.39,2.26,2.18,7.97,10.2,14.19c0.33,0.26,0.67,0.52,1.02,0.77"/>
				<path fill="none" stroke="#999999" stroke-miterlimit="10" d="M74.699,118.67l14.17,6.15l-5.19,12.03
					c2.56-1.32,8.7-5.43,12.31-15.69l0.48,0.01l0.49,0.16c0,0.07,0.2,7.28,10.44,15.1l-4.85-12.93l15.22-4.28l4.59,12.85
					c0.61-2.97,1.64-10.09-0.38-17.61l-0.29-1.08l0.99,0.5c0.27,0.13,6.46,3.2,12.76,3.2c1.86,0,3.55-0.28,5.04-0.82l-11.67-6.47
					l6.17-13.14l12.82,6.49c-0.02-0.95-1.07-4.47-11.45-15.21l-0.63-0.65l0.89-0.19c0.06-0.01,6.15-1.31,13.81-5.75h-12.61
					l-3.21-13.94l14.55-1.79c0.03-0.1,0.04-0.24-0.04-0.42c-0.38-0.89-2.86-3.08-17.69-4.11l-0.89-0.06l0.53-0.73
					c0.06-0.1,6.65-9.28,6.72-16.19l-9.27,10.68l-0.38-0.32l-10.85-9.3l7.92-10.74c-1.59,0.27-5.89,1.62-15.72,7.83l-0.75,0.48
					l-0.02-0.89c0-0.11-0.32-11.14-5.02-16.34l-0.24,14.58h-15.47l-0.69-14.05c-1.44,2.58-4.62,8.87-6.09,16.4l-0.17,0.85
					l-0.65-0.57c-2.78-2.43-10.8-8.74-14.49-8.74c-0.26,0-0.49,0.03-0.69,0.1l8.04,11.06l-9.54,9.41l-10.22-10.46
					c0.16,2.85,1.15,10.07,6.86,16.93l0.7,0.83l-1.62-0.01c-6.91,0-15.66,0.74-17.56,2.84c-0.15,0.16-0.25,0.32-0.3,0.48l15.08,2.26
					l-3.3,14.64l-12.13-2.18c-0.03,0.08-0.06,0.18-0.04,0.32c0.08,0.9,1.57,3.58,13.5,8.93l0.76,0.35l-0.67,0.51
					c-3.51,2.67-12.6,10.23-12.56,13.1c0.01,0.15,0.03,0.27,0.1,0.38l12.84-7.31l7.99,13.85l-11.01,6.96
					c2.21-0.17,7.34-1.01,18.19-4.36l1.21-0.37l-0.63,1.1c-0.04,0.08-4.46,8-1.83,18.05L74.699,118.67z"/>
				<polyline fill="none" stroke="#999999" stroke-miterlimit="10" points="122.458,133.83 122.188,133.06 117.539,120.05 
					117.458,119.83 				"/>
				<polyline fill="none" stroke="#999999" stroke-miterlimit="10" points="68.958,132.83 74.958,119.33 78.349,120.8 				"/>
				<line fill="none" stroke="#999999" stroke-miterlimit="10" x1="103.208" y1="123.83" x2="106.539" y2="132.71"/>
				<path fill="none" stroke="#999999" stroke-miterlimit="10" d="M68.798,132.3c-0.09-0.32-0.19-0.64-0.27-0.96
					c-0.08-0.32-0.15-0.64-0.22-0.96"/>
				<path fill="none" stroke="#999999" stroke-miterlimit="10" d="M123.528,120.61c-0.06-0.8-0.15-1.63-0.28-2.47
					c-0.11-0.74-0.25-1.49-0.41-2.24"/>
				<path fill="none" stroke="#999999" stroke-miterlimit="10" d="M123.449,128.21c0.06-0.54,0.1-1.11,0.14-1.7"/>
				<path fill="none" stroke="#999999" stroke-miterlimit="10" d="M123.269,129.71c0.06-0.43,0.12-0.89,0.16-1.37"/>
				<path fill="none" stroke="#999999" stroke-miterlimit="10" d="M123.059,131.04c0.04-0.19,0.07-0.38,0.1-0.58"/>
				<path fill="none" stroke="#999999" stroke-miterlimit="10" d="M122.829,132.26c0.02-0.1,0.04-0.21,0.07-0.33
					c0-0.02,0.01-0.05,0.01-0.07c0.05-0.24,0.1-0.5,0.14-0.77"/>
				<path fill="none" stroke="#999999" stroke-miterlimit="10" d="M123.048,131.09c-0.05,0.28-0.09,0.53-0.14,0.77"/>
				<path fill="none" stroke="#999999" stroke-miterlimit="10" d="M123.048,131.09c0.01-0.02,0.01-0.03,0.01-0.05"/>
				<path fill="none" stroke="#999999" stroke-miterlimit="10" d="M123.159,130.46c-0.04,0.2-0.07,0.4-0.1,0.58"/>
				<path fill="none" stroke="#999999" stroke-miterlimit="10" d="M123.159,130.46c0-0.04,0.01-0.09,0.02-0.14c0-0.01,0-0.01,0-0.02
					c0.02-0.14,0.04-0.29,0.07-0.45c0.01-0.05,0.02-0.1,0.02-0.14"/>
				<path fill="none" stroke="#999999" stroke-miterlimit="10" d="M123.429,128.34c-0.05,0.48-0.11,0.94-0.16,1.37"/>
				<path fill="none" stroke="#999999" stroke-miterlimit="10" d="M123.429,128.34c0-0.02,0.01-0.04,0.01-0.06
					c0.01-0.03,0.01-0.05,0.01-0.07"/>
				<path fill="none" stroke="#999999" stroke-miterlimit="10" d="M123.588,126.51c-0.04,0.6-0.09,1.17-0.14,1.7"/>
				<path fill="none" stroke="#999999" stroke-miterlimit="10" d="M123.588,126.51c0.01-0.21,0.02-0.41,0.03-0.62v-0.01
					c0.01-0.21,0.02-0.42,0.03-0.64v-0.01c0.01-0.21,0.01-0.43,0.01-0.65c0,0,0-0.01,0-0.02c0.01-0.21,0.01-0.43,0.01-0.65
					c0-1.05-0.04-2.15-0.14-3.3"/>
				<path fill="none" stroke="#999999" stroke-miterlimit="10" d="M123.249,118.14c0.12,0.84,0.22,1.66,0.28,2.47"/>
				<path fill="none" stroke="#999999" stroke-miterlimit="10" d="M138.559,117.3c0.47-0.09,0.93-0.2,1.38-0.33
					c0.21-0.06,0.41-0.12,0.6-0.19c0.08-0.03,0.16-0.06,0.24-0.09c0.13-0.05,0.26-0.1,0.39-0.15l0.06-0.03"/>
				<path fill="none" stroke="#999999" stroke-miterlimit="10" d="M135.539,117.58c0.59,0,1.16-0.03,1.71-0.09
					c0.44-0.04,0.86-0.1,1.27-0.18"/>
				<path fill="none" stroke="#999999" stroke-miterlimit="10" d="M138.519,117.31c-0.41,0.08-0.83,0.14-1.27,0.18"/>
				<path fill="none" stroke="#999999" stroke-miterlimit="10" d="M138.519,117.31c0.02,0,0.03,0,0.04-0.01"/>
				<path fill="none" stroke="#999999" stroke-miterlimit="10" d="M139.938,116.97c-0.44,0.13-0.9,0.24-1.38,0.33"/>
				<path fill="none" stroke="#999999" stroke-miterlimit="10" d="M62.718,115.32c0.49-0.13,1.01-0.27,1.54-0.42"/>
				<path fill="none" stroke="#999999" stroke-miterlimit="10" d="M56.668,116.77c1.19-0.24,2.59-0.56,4.24-0.98"/>
				<path fill="none" stroke="#999999" stroke-miterlimit="10" d="M53.358,117.33c0.75-0.09,1.67-0.24,2.79-0.46"/>
				<path fill="none" stroke="#999999" stroke-miterlimit="10" d="M51.238,117.51c0.2,0,0.43-0.01,0.71-0.03
					c0.05-0.01,0.11-0.01,0.17-0.01c0.02,0,0.05-0.01,0.08-0.01c0.13-0.01,0.27-0.02,0.42-0.04"/>
				<path fill="none" stroke="#999999" stroke-miterlimit="10" d="M52.619,117.42c-0.15,0.01-0.29,0.03-0.42,0.04"/>
				<path fill="none" stroke="#999999" stroke-miterlimit="10" d="M52.619,117.42c0.02,0,0.04,0,0.07-0.01
					c0.03,0,0.06-0.01,0.09-0.01c0.18-0.01,0.37-0.04,0.58-0.07"/>
				<path fill="none" stroke="#999999" stroke-miterlimit="10" d="M56.148,116.87c-1.13,0.22-2.05,0.36-2.79,0.46"/>
				<path fill="none" stroke="#999999" stroke-miterlimit="10" d="M56.148,116.87c0.17-0.03,0.34-0.07,0.52-0.1"/>
				<path fill="none" stroke="#999999" stroke-miterlimit="10" d="M60.909,115.79c-1.65,0.41-3.05,0.73-4.24,0.98"/>
				<path fill="none" stroke="#999999" stroke-miterlimit="10" d="M60.909,115.79c0.11-0.03,0.24-0.06,0.36-0.09
					c0.22-0.06,0.45-0.12,0.68-0.18c0.25-0.06,0.5-0.13,0.77-0.2"/>
				<path fill="none" stroke="#999999" stroke-miterlimit="10" d="M69.318,113.43c-0.74,0.23-1.46,0.44-2.14,0.64
					c-0.64,0.19-1.26,0.36-1.85,0.53c-0.37,0.11-0.72,0.21-1.07,0.3c-0.53,0.15-1.04,0.29-1.54,0.42"/>
				<polyline fill="none" stroke="#999999" stroke-miterlimit="10" points="131.338,110.62 141.188,116.09 141.628,116.33 				"/>
				<path fill="none" stroke="#999999" stroke-miterlimit="10" d="M122.778,114.48l-0.09-0.04c-0.01-0.01-0.02-0.01-0.03-0.02h-0.01
					c-0.03-0.01-0.06-0.03-0.08-0.04l-0.1-0.04c-0.01-0.01-0.01-0.01-0.01-0.01c0.01,0.03,0.02,0.07,0.03,0.1l0.06,0.24"/>
				<line fill="none" stroke="#999999" stroke-miterlimit="10" x1="122.488" y1="114.43" x2="122.468" y2="114.34"/>
				<polyline fill="none" stroke="#999999" stroke-miterlimit="10" points="70.099,113.19 70.438,113.09 70.398,113.18 				"/>
				<path fill="none" stroke="#999999" stroke-miterlimit="10" d="M70.269,113.45l0.09-0.18c0.01-0.03,0.03-0.06,0.04-0.09
					c0.03-0.06,0.05-0.09,0.06-0.1c-0.01,0-0.01,0-0.02,0.01"/>
				<line fill="none" stroke="#999999" stroke-miterlimit="10" x1="132.059" y1="104.05" x2="135.208" y2="97.33"/>
				<path fill="none" stroke="#999999" stroke-miterlimit="10" d="M42.059,103.96c-0.01-0.01-0.01-0.01-0.01-0.02
					c-0.23-0.23-0.34-0.52-0.35-0.85c0-0.01,0-0.03,0-0.05"/>
				<path fill="none" stroke="#999999" stroke-miterlimit="10" d="M49.579,93.57c0.26-0.22,0.52-0.45,0.78-0.66
					c0.16-0.15,0.32-0.28,0.48-0.41c0.19-0.17,0.39-0.33,0.59-0.5c0.17-0.14,0.33-0.27,0.48-0.39c0.2-0.17,0.4-0.33,0.6-0.49
					c0.08-0.06,0.16-0.13,0.23-0.19c0.34-0.27,0.68-0.55,1.02-0.81"/>
				<path fill="none" stroke="#999999" stroke-miterlimit="10" d="M53.559,89.17c0.12,0.05,0.24,0.11,0.36,0.17h0.01
					c0.05,0.02,0.1,0.04,0.15,0.07l0.38,0.17l-0.2,0.15"/>
				<path fill="none" stroke="#999999" stroke-miterlimit="10" d="M52.688,88.77c0.29,0.13,0.57,0.27,0.87,0.4
					C53.258,89.03,52.968,88.9,52.688,88.77z"/>
				<path fill="none" stroke="#999999" stroke-miterlimit="10" d="M139.818,86.69c-0.25,0.08-0.49,0.15-0.71,0.23"/>
				<path fill="none" stroke="#999999" stroke-miterlimit="10" d="M141.139,86.23c-0.33,0.12-0.65,0.23-0.94,0.33"/>
				<path fill="none" stroke="#999999" stroke-miterlimit="10" d="M143.199,85.44c-0.29,0.12-0.56,0.23-0.83,0.33"/>
				<path fill="none" stroke="#999999" stroke-miterlimit="10" d="M144.378,84.94c-0.32,0.14-0.62,0.27-0.92,0.39"/>
				<path fill="none" stroke="#999999" stroke-miterlimit="10" d="M145.468,84.46c-0.32,0.15-0.64,0.29-0.94,0.42"/>
				<path fill="none" stroke="#999999" stroke-miterlimit="10" d="M147.548,83.46c-0.32,0.17-0.64,0.33-0.95,0.47
					c-0.27,0.14-0.54,0.26-0.8,0.38"/>
				<path fill="none" stroke="#999999" stroke-miterlimit="10" d="M148.988,82.71c-0.39,0.22-0.77,0.42-1.15,0.61"/>
				<path fill="none" stroke="#999999" stroke-miterlimit="10" d="M151.318,81.39c-0.36,0.22-0.73,0.43-1.08,0.63"/>
				<path fill="none" stroke="#999999" stroke-miterlimit="10" d="M150.238,82.02c0.36-0.2,0.72-0.41,1.08-0.63
					c0.05-0.02,0.09-0.05,0.14-0.08l0.06-0.04"/>
				<path fill="none" stroke="#999999" stroke-miterlimit="10" d="M150.238,82.02c-0.42,0.24-0.84,0.47-1.25,0.69"/>
				<path fill="none" stroke="#999999" stroke-miterlimit="10" d="M147.838,83.32c0.38-0.2,0.76-0.4,1.15-0.61"/>
				<path fill="none" stroke="#999999" stroke-miterlimit="10" d="M147.838,83.32c-0.1,0.05-0.2,0.1-0.29,0.14"/>
				<path fill="none" stroke="#999999" stroke-miterlimit="10" d="M145.798,84.31c0.26-0.12,0.53-0.25,0.8-0.38
					c0.31-0.15,0.63-0.31,0.95-0.47"/>
				<path fill="none" stroke="#999999" stroke-miterlimit="10" d="M145.798,84.31c-0.11,0.05-0.22,0.1-0.33,0.15"/>
				<path fill="none" stroke="#999999" stroke-miterlimit="10" d="M144.528,84.88c0.31-0.13,0.62-0.27,0.94-0.42"/>
				<path fill="none" stroke="#999999" stroke-miterlimit="10" d="M144.528,84.88c-0.05,0.03-0.1,0.05-0.15,0.06"/>
				<path fill="none" stroke="#999999" stroke-miterlimit="10" d="M143.458,85.33c0.3-0.12,0.61-0.25,0.92-0.39"/>
				<path fill="none" stroke="#999999" stroke-miterlimit="10" d="M143.458,85.33c-0.04,0.02-0.08,0.04-0.11,0.05
					c-0.05,0.02-0.1,0.04-0.15,0.06"/>
				<path fill="none" stroke="#999999" stroke-miterlimit="10" d="M142.369,85.77c0.27-0.1,0.55-0.21,0.83-0.33"/>
				<path fill="none" stroke="#999999" stroke-miterlimit="10" d="M142.369,85.77c-0.09,0.03-0.18,0.07-0.26,0.1
					c-0.34,0.13-0.66,0.25-0.97,0.36"/>
				<path fill="none" stroke="#999999" stroke-miterlimit="10" d="M140.199,86.56c0.3-0.1,0.61-0.21,0.94-0.33"/>
				<path fill="none" stroke="#999999" stroke-miterlimit="10" d="M140.199,86.56c-0.13,0.05-0.26,0.09-0.38,0.13"/>
				<path fill="none" stroke="#999999" stroke-miterlimit="10" d="M138.378,89.33c-0.24-0.25-0.49-0.51-0.74-0.78
					c-0.03-0.03-0.05-0.06-0.08-0.08c-0.18-0.19-0.37-0.38-0.55-0.58l-0.3-0.31l0.06-0.01c0.03-0.01,0.06-0.02,0.1-0.03l0.14-0.03
					c0.08-0.02,0.16-0.04,0.27-0.07c0.1-0.02,0.22-0.05,0.35-0.09s0.26-0.07,0.41-0.12c0.31-0.08,0.67-0.19,1.07-0.31
					c0.22-0.07,0.46-0.15,0.71-0.23"/>
				<line fill="none" stroke="#999999" stroke-miterlimit="10" x1="152.218" y1="80.84" x2="138.208" y2="80.84"/>
				<line fill="none" stroke="#999999" stroke-miterlimit="10" x1="45.418" y1="80.12" x2="41.019" y2="79.33"/>
				<line fill="none" stroke="#999999" stroke-miterlimit="10" x1="56.028" y1="67.83" x2="41.028" y2="65.58"/>
				<path fill="none" stroke="#999999" stroke-miterlimit="10" d="M149.579,65.88c0.03-0.05,0.05-0.12,0.06-0.19
					c0.02-0.07,0.03-0.15,0.03-0.24c0-0.13-0.02-0.27-0.09-0.44V65c0,0,0-0.01-0.01-0.01c-0.01-0.03-0.03-0.06-0.05-0.1"/>
				<path fill="none" stroke="#999999" stroke-miterlimit="10" d="M149.568,64.99c0,0.01,0.01,0.01,0.01,0.02"/>
				<path fill="none" stroke="#999999" stroke-miterlimit="10" d="M44.849,62.69c-1.52,0.41-2.73,0.95-3.36,1.64
					c-0.14,0.15-0.24,0.31-0.32,0.47"/>
				<path fill="none" stroke="#999999" stroke-miterlimit="10" d="M59.688,61c0.02,0.02,0.03,0.04,0.04,0.06h0.01
					c0.05,0.06,0.09,0.11,0.13,0.17h0.01l0.07,0.1h-0.52h-0.01"/>
				<path fill="none" stroke="#999999" stroke-miterlimit="10" d="M59.949,61.33h0.01c-0.03-0.03-0.05-0.07-0.08-0.1"/>
				<path fill="none" stroke="#999999" stroke-miterlimit="10" d="M137.659,48.15c-1.1,4.01-3.39,8.06-4.85,10.4
					c-0.04,0.07-0.09,0.14-0.12,0.2c-0.07,0.09-0.12,0.17-0.17,0.25c-0.06,0.11-0.13,0.21-0.2,0.3c0,0.01,0,0.01,0,0.01
					c-0.07,0.11-0.13,0.21-0.2,0.3c-0.07,0.1-0.13,0.2-0.19,0.29c-0.08,0.12-0.16,0.23-0.22,0.32l-0.11,0.16
					c-0.09,0.12-0.13,0.19-0.14,0.2l0.39,0.03"/>
				<path fill="none" stroke="#999999" stroke-miterlimit="10" d="M137.958,46.88c-0.04,0.19-0.08,0.37-0.12,0.56"/>
				<path fill="none" stroke="#999999" stroke-miterlimit="10" d="M138.269,43.61c0.01,0.16,0.01,0.32,0.01,0.49
					c-0.01,0.18-0.01,0.37-0.02,0.56c0,0.05-0.01,0.1-0.01,0.15c-0.04,0.55-0.11,1.1-0.21,1.67"/>
				<path fill="none" stroke="#999999" stroke-miterlimit="10" d="M138.039,46.48c0.11-0.57,0.18-1.12,0.21-1.67"/>
				<path fill="none" stroke="#999999" stroke-miterlimit="10" d="M138.039,46.48c-0.02,0.13-0.05,0.26-0.08,0.4"/>
				<path fill="none" stroke="#999999" stroke-miterlimit="10" d="M137.838,47.44c0.05-0.19,0.09-0.38,0.12-0.56"/>
				<path fill="none" stroke="#999999" stroke-miterlimit="10" d="M137.838,47.44c-0.05,0.24-0.11,0.47-0.18,0.71"/>
				<path fill="none" stroke="#999999" stroke-miterlimit="10" d="M132.809,58.55c1.46-2.31,3.76-6.36,4.85-10.4"/>
				<polyline fill="none" stroke="#999999" stroke-miterlimit="10" points="126.019,51.99 128.269,53.92 128.458,54.08 
					138.208,42.83 				"/>
				<polyline fill="none" stroke="#999999" stroke-miterlimit="10" points="55.398,45.33 63.539,53.65 63.708,53.83 65.068,52.49 
									"/>
				<line fill="none" stroke="#999999" stroke-miterlimit="10" x1="64.458" y1="33.89" x2="72.588" y2="45.08"/>
				<path fill="none" stroke="#999999" stroke-miterlimit="10" d="M66.358,33.5c-0.05-0.01-0.1-0.01-0.14-0.01
					c-0.11-0.01-0.21-0.02-0.31-0.02"/>
				<path fill="none" stroke="#999999" stroke-miterlimit="10" d="M67.148,33.65c-0.14-0.04-0.27-0.07-0.4-0.09"/>
				<path fill="none" stroke="#999999" stroke-miterlimit="10" d="M67.869,33.86c-0.16-0.06-0.31-0.11-0.47-0.15"/>
				<path fill="none" stroke="#999999" stroke-miterlimit="10" d="M76.668,39.08c-2.29-1.73-5.19-3.71-7.68-4.79
					c-0.19-0.09-0.38-0.17-0.57-0.23"/>
				<path fill="none" stroke="#999999" stroke-miterlimit="10" d="M77.999,40.11c-0.4-0.33-0.84-0.67-1.31-1.01"/>
				<path fill="none" stroke="#999999" stroke-miterlimit="10" d="M78.789,40.73c-0.19-0.16-0.4-0.32-0.62-0.49"/>
				<path fill="none" stroke="#999999" stroke-miterlimit="10" d="M79.988,41.72c-0.12-0.11-0.24-0.21-0.38-0.32"/>
				<path fill="none" stroke="#999999" stroke-miterlimit="10" d="M80.958,41.13c-0.06,0.25-0.12,0.52-0.17,0.78l-0.08,0.42"/>
				<path fill="none" stroke="#999999" stroke-miterlimit="10" d="M81.278,39.78c-0.07,0.27-0.14,0.55-0.2,0.84"/>
				<path fill="none" stroke="#999999" stroke-miterlimit="10" d="M82.369,36.03c-0.15,0.46-0.3,0.92-0.44,1.4
					c-0.14,0.47-0.28,0.95-0.41,1.44c-0.07,0.25-0.14,0.5-0.2,0.76"/>
				<path fill="none" stroke="#999999" stroke-miterlimit="10" d="M83.559,32.75c-0.11,0.29-0.23,0.59-0.34,0.89"/>
				<path fill="none" stroke="#999999" stroke-miterlimit="10" d="M85.958,27.46c-0.11,0.2-0.21,0.4-0.32,0.62"/>
				<path fill="none" stroke="#999999" stroke-miterlimit="10" d="M85.639,28.08c0.11-0.22,0.22-0.42,0.32-0.62
					c0.1-0.2,0.2-0.39,0.3-0.58c0.14-0.28,0.28-0.53,0.41-0.76c0.27-0.49,0.5-0.89,0.67-1.18"/>
				<path fill="none" stroke="#999999" stroke-miterlimit="10" d="M85.639,28.08c-0.12,0.25-0.25,0.52-0.38,0.8
					c-0.3,0.61-0.61,1.27-0.92,1.99c-0.05,0.12-0.1,0.24-0.15,0.35c-0.09,0.22-0.19,0.45-0.28,0.68c-0.12,0.28-0.24,0.56-0.35,0.85"
					/>
				<path fill="none" stroke="#999999" stroke-miterlimit="10" d="M83.218,33.64c0.11-0.3,0.23-0.6,0.34-0.89"/>
				<path fill="none" stroke="#999999" stroke-miterlimit="10" d="M83.218,33.64l-0.47,1.28c-0.13,0.36-0.26,0.73-0.38,1.11"/>
				<path fill="none" stroke="#999999" stroke-miterlimit="10" d="M81.318,39.63c0.06-0.26,0.13-0.51,0.2-0.76
					c0.13-0.49,0.27-0.97,0.41-1.44c0.14-0.48,0.29-0.95,0.44-1.4"/>
				<path fill="none" stroke="#999999" stroke-miterlimit="10" d="M81.318,39.63c-0.01,0.05-0.03,0.1-0.04,0.15"/>
				<path fill="none" stroke="#999999" stroke-miterlimit="10" d="M81.079,40.62c0.06-0.29,0.13-0.57,0.2-0.84"/>
				<path fill="none" stroke="#999999" stroke-miterlimit="10" d="M81.079,40.62c-0.05,0.17-0.08,0.33-0.12,0.51"/>
				<path fill="none" stroke="#999999" stroke-miterlimit="10" d="M80.708,42.33c0.08-0.41,0.16-0.81,0.25-1.2"/>
				<path fill="none" stroke="#999999" stroke-miterlimit="10" d="M80.708,42.33c0,0-0.02-0.01-0.04-0.03l-0.28-0.25
					c-0.04-0.03-0.1-0.07-0.15-0.12c-0.01-0.01-0.02-0.02-0.03-0.03c-0.07-0.05-0.14-0.11-0.22-0.18"/>
				<path fill="none" stroke="#999999" stroke-miterlimit="10" d="M79.608,41.4c0.14,0.12,0.27,0.23,0.38,0.32"/>
				<path fill="none" stroke="#999999" stroke-miterlimit="10" d="M79.608,41.4c-0.05-0.05-0.1-0.09-0.15-0.13
					c-0.03-0.01-0.06-0.03-0.08-0.06c-0.08-0.07-0.16-0.13-0.24-0.2c-0.01,0-0.03-0.01-0.04-0.03c0-0.01-0.01-0.01-0.02-0.02
					c-0.02-0.01-0.05-0.03-0.07-0.05c-0.07-0.06-0.14-0.12-0.22-0.18"/>
				<path fill="none" stroke="#999999" stroke-miterlimit="10" d="M78.168,40.24c0.22,0.18,0.42,0.34,0.62,0.49"/>
				<path fill="none" stroke="#999999" stroke-miterlimit="10" d="M78.168,40.24c-0.05-0.05-0.1-0.09-0.16-0.13
					c0,0-0.01,0.01-0.01,0"/>
				<path fill="none" stroke="#999999" stroke-miterlimit="10" d="M76.688,39.1c0.46,0.35,0.9,0.69,1.31,1.01"/>
				<path fill="none" stroke="#999999" stroke-miterlimit="10" d="M76.688,39.1c-0.01-0.01-0.01-0.02-0.02-0.02"/>
				<path fill="none" stroke="#999999" stroke-miterlimit="10" d="M68.418,34.06c0.19,0.07,0.38,0.15,0.57,0.23
					c2.48,1.09,5.38,3.07,7.68,4.79"/>
				<path fill="none" stroke="#999999" stroke-miterlimit="10" d="M68.418,34.06c-0.18-0.08-0.37-0.14-0.55-0.2"/>
				<path fill="none" stroke="#999999" stroke-miterlimit="10" d="M67.398,33.71c0.15,0.04,0.31,0.09,0.47,0.15"/>
				<path fill="none" stroke="#999999" stroke-miterlimit="10" d="M67.398,33.71c-0.04-0.01-0.08-0.02-0.12-0.03
					c-0.04-0.02-0.09-0.03-0.13-0.03"/>
				<path fill="none" stroke="#999999" stroke-miterlimit="10" d="M66.749,33.56c0.13,0.02,0.26,0.05,0.4,0.09"/>
				<path fill="none" stroke="#999999" stroke-miterlimit="10" d="M66.749,33.56c-0.06-0.01-0.12-0.02-0.18-0.03
					c-0.07-0.01-0.14-0.02-0.21-0.03"/>
				<path fill="none" stroke="#999999" stroke-miterlimit="10" d="M66.218,33.49c0.04,0,0.09,0,0.14,0.01"/>
				<path fill="none" stroke="#999999" stroke-miterlimit="10" d="M107.738,32.41c-0.13-0.47-0.28-0.95-0.45-1.42
					c-0.32-0.94-0.7-1.87-1.16-2.75c-0.11-0.22-0.22-0.43-0.35-0.64c-0.11-0.22-0.24-0.43-0.37-0.63c-0.12-0.21-0.26-0.41-0.4-0.6
					c-0.1-0.15-0.2-0.29-0.31-0.43c-0.04-0.05-0.08-0.1-0.11-0.15c-0.02-0.02-0.04-0.05-0.06-0.07c-0.28-0.35-0.57-0.67-0.88-0.98"
					/>
				<path fill="none" stroke="#999999" stroke-miterlimit="10" d="M108.079,33.67c-0.04-0.16-0.08-0.33-0.12-0.5"/>
				<path fill="none" stroke="#999999" stroke-miterlimit="10" d="M108.548,35.86c-0.04-0.22-0.08-0.44-0.13-0.67"/>
				<path fill="none" stroke="#999999" stroke-miterlimit="10" d="M108.958,38.61c-0.02-0.16-0.04-0.32-0.06-0.49"/>
				<path fill="none" stroke="#999999" stroke-miterlimit="10" d="M109.148,40.64c-0.02-0.21-0.03-0.45-0.05-0.71"/>
				<path fill="none" stroke="#999999" stroke-miterlimit="10" d="M109.199,41.57l-0.01-0.17c0-0.06-0.01-0.13-0.01-0.21"/>
				<path fill="none" stroke="#999999" stroke-miterlimit="10" d="M110.519,41.01c-0.31,0.19-0.62,0.39-0.94,0.59"/>
				<path fill="none" stroke="#999999" stroke-miterlimit="10" d="M115.958,37.82c-0.2,0.11-0.41,0.22-0.63,0.35"/>
				<path fill="none" stroke="#999999" stroke-miterlimit="10" d="M118.079,36.69c-0.21,0.1-0.42,0.21-0.64,0.33"/>
				<path fill="none" stroke="#999999" stroke-miterlimit="10" d="M125.548,33.87c-0.45,0.04-1.17,0.18-2.28,0.54
					c-0.11,0.04-0.23,0.08-0.34,0.12c-0.24,0.08-0.49,0.17-0.75,0.28"/>
				<path fill="none" stroke="#999999" stroke-miterlimit="10" d="M122.179,34.81c0.26-0.1,0.51-0.19,0.75-0.28"/>
				<path fill="none" stroke="#999999" stroke-miterlimit="10" d="M122.179,34.81c-0.41,0.16-0.85,0.35-1.34,0.56
					c-0.03,0.01-0.06,0.03-0.09,0.04c-0.41,0.18-0.85,0.38-1.32,0.61l-1.35,0.67"/>
				<path fill="none" stroke="#999999" stroke-miterlimit="10" d="M117.438,37.02c0.22-0.11,0.43-0.22,0.64-0.33"/>
				<path fill="none" stroke="#999999" stroke-miterlimit="10" d="M117.438,37.02l-1.1,0.59c-0.13,0.07-0.25,0.14-0.38,0.21"/>
				<path fill="none" stroke="#999999" stroke-miterlimit="10" d="M115.329,38.17c0.21-0.12,0.43-0.24,0.63-0.35"/>
				<path fill="none" stroke="#999999" stroke-miterlimit="10" d="M115.329,38.17l-0.71,0.4c-0.06,0.03-0.12,0.06-0.17,0.1
					l-3.17,1.88c-0.25,0.15-0.5,0.3-0.76,0.46"/>
				<path fill="none" stroke="#999999" stroke-miterlimit="10" d="M109.579,41.6c0.32-0.2,0.64-0.4,0.94-0.59"/>
				<path fill="none" stroke="#999999" stroke-miterlimit="10" d="M109.579,41.6l-0.37,0.23c0-0.01,0-0.1-0.01-0.26"/>
				<path fill="none" stroke="#999999" stroke-miterlimit="10" d="M109.179,41.19c0.01,0.15,0.02,0.28,0.02,0.38"/>
				<path fill="none" stroke="#999999" stroke-miterlimit="10" d="M109.179,41.19c0-0.06,0-0.13-0.01-0.21
					c-0.01-0.1-0.01-0.22-0.02-0.34"/>
				<path fill="none" stroke="#999999" stroke-miterlimit="10" d="M109.099,39.93c0.02,0.26,0.04,0.5,0.05,0.71"/>
				<path fill="none" stroke="#999999" stroke-miterlimit="10" d="M109.099,39.93c-0.03-0.26-0.05-0.54-0.09-0.85
					c-0.01-0.15-0.03-0.31-0.05-0.47"/>
				<path fill="none" stroke="#999999" stroke-miterlimit="10" d="M108.898,38.12c0.02,0.17,0.04,0.34,0.06,0.49"/>
				<path fill="none" stroke="#999999" stroke-miterlimit="10" d="M108.898,38.12c-0.04-0.31-0.09-0.65-0.14-0.99
					c-0.06-0.41-0.13-0.83-0.21-1.27"/>
				<path fill="none" stroke="#999999" stroke-miterlimit="10" d="M108.418,35.19c0.05,0.22,0.09,0.45,0.13,0.67"/>
				<path fill="none" stroke="#999999" stroke-miterlimit="10" d="M108.418,35.19c-0.03-0.17-0.07-0.35-0.11-0.53
					c-0.03-0.13-0.06-0.26-0.09-0.39c-0.04-0.19-0.09-0.39-0.14-0.6"/>
				<path fill="none" stroke="#999999" stroke-miterlimit="10" d="M107.958,33.17c0.04,0.17,0.08,0.34,0.12,0.5"/>
				<path fill="none" stroke="#999999" stroke-miterlimit="10" d="M107.958,33.17c-0.01-0.02-0.01-0.04-0.02-0.06
					c-0.03-0.1-0.06-0.2-0.08-0.29c-0.03-0.14-0.07-0.27-0.12-0.41"/>
				<path fill="none" stroke="#999999" stroke-miterlimit="10" d="M104.699,25.94c0.11,0.14,0.21,0.28,0.31,0.43
					c0.14,0.19,0.27,0.39,0.4,0.6c0.13,0.2,0.25,0.41,0.37,0.63c0.12,0.21,0.24,0.42,0.35,0.64c0.45,0.88,0.83,1.81,1.16,2.75
					c0.16,0.47,0.31,0.94,0.45,1.42"/>
				<polyline fill="none" stroke="#999999" stroke-miterlimit="10" points="88.458,39.58 102.958,39.58 103.208,24.33 				"/>
				<path fill="none" stroke="#999999" stroke-miterlimit="10" d="M64.688,33.75c0.04-0.03,0.09-0.05,0.14-0.07
					c0.21-0.09,0.44-0.16,0.7-0.19c0.1-0.01,0.22-0.02,0.33-0.02"/>
			</g>
		</g>
	</g>
</g>
<g id="Capa_2">
</g>
<g id="Capa_3">
</g>
<g id="Capa_4">
</g>
<g id="Capa_5">
</g>
<g id="Capa_6">
</g>
</svg>
